<?xml version="1.0" encoding="utf-8"?>
<!-- Generator: Adobe Illustrator 19.0.0, SVG Export Plug-In . SVG Version: 6.00 Build 0)  -->
<svg version="1.1" xmlns="http://www.w3.org/2000/svg" xmlns:xlink="http://www.w3.org/1999/xlink" x="0px" y="0px"
	 viewBox="0 0 600 600" style="enable-background:new 0 0 600 600;" xml:space="preserve">
<style type="text/css">
	.st0{fill:none;stroke:#FFFFFF;stroke-width:12;}
	.st1{fill:none;stroke:#000000;stroke-width:24;}
	.st2{fill:none;stroke:#000000;stroke-width:10;}
</style>
<g id="Layer_1">
</g>
<g id="Layer_2">
	<g id="XMLID_827_">
		<g id="XMLID_164_">
			<g id="XMLID_178_">
				<path id="XMLID_181_" d="M425,500c9.4,0,17,7.7,17,17c0,9.4-7.6,17-17,17H175c-9.4,0-17-7.6-17-17c0-9,9.8-15.9,17-17
					c1.6-0.2,1.8,0,19.5,0c0,0,0.5,0,1.9,0c5.7,0,11.3,0,17,0c57.4,0,114.8,0,172.2,0C398.7,500,411.9,500,425,500z"/>
				<path id="XMLID_180_" d="M379.2,264.7c1.7,3.6,4.6,9.6,4.8,10.7c0.2,1.5,0,3.1-2.1,5.6c-2.7,2.5-5.8,5.1-9.9,9.3l0,0
					c-15.7,15.6-32.8,29.9-48.4,45.6c-1.2,1.3-1.3,3.3-0.1,4.6l11.8,13.3c1.1,1.3,3.1,1.4,4.4,0.2l40.2-38.2l6.2-5.9l7.3-6.9
					c0.5-0.4,0.7-0.3,0.8-0.1c0,0,0,0,0,0c0.3,0.7,0.5,1.5,0.7,2.2c0,0.1,0.1,0.2,0.1,0.3c12.8,39.6,18.4,80.6,12.5,123.5
					c-4,25-11,49-21.9,70.9v0.1c-57.4,0-114.8,0-172.2,0v-0.1c-28.1-55.9-29.3-122.7-12.7-183c18.2-65.9,56-123.9,98.4-176.7l0-0.3
					c0.1,0,0.2,0,0.3,0c0.1,0,0.2,0,0.4,0l0,0.3c7.5,9,14.7,18.2,21.6,27.6c12.4,16.7,24,34,34.5,51.9c8.2,13.9,15.7,28.3,22.4,43
					c0,0.1,0.1,0.2,0.1,0.3c0.2,0.4,0.4,0.9,0.7,1.5C379.1,264.5,379.2,264.6,379.2,264.7z"/>
				<path id="XMLID_179_" d="M299.4,103.8c9.9,0,18,8.1,18,18c0,9.8-7.9,17.8-17.6,18c-0.1,0-0.2,0-0.4,0c-0.1,0-0.2,0-0.3,0
					c-9.8-0.2-17.7-8.2-17.7-18C281.4,111.9,289.5,103.8,299.4,103.8z"/>
			</g>
			<g id="XMLID_165_">
				<path id="XMLID_177_" class="st0" d="M385.6,500c13.1,0,26.3,0,39.4,0c9.4,0,17,7.7,17,17c0,9.4-7.6,17-17,17H175
					c-9.4,0-17-7.6-17-17c0-9,9.8-15.9,17-17c1.6-0.2,1.8,0,19.5,0c0,0,0.5,0,1.9,0c5.7,0,11.3,0,17,0
					C270.8,500,328.2,500,385.6,500z"/>
				<path id="XMLID_176_" class="st0" d="M299.8,139.8c9.8-0.2,17.6-8.2,17.6-18c0-9.9-8.1-18-18-18s-18,8.1-18,18
					c0,9.8,7.9,17.8,17.7,18c0.1,0,0.2,0,0.3,0C299.6,139.8,299.7,139.8,299.8,139.8z"/>
				<path id="XMLID_175_" class="st0" d="M299.1,140.2c-42.4,52.8-80.2,110.8-98.4,176.7c-16.7,60.3-15.4,127.1,12.7,183"/>
				<path id="XMLID_174_" class="st0" d="M378.3,262.6c-6.7-14.7-14.2-29-22.4-43c-10.5-17.9-22.1-35.2-34.5-51.9
					c-7-9.4-14.2-18.6-21.6-27.6"/>
				<path id="XMLID_173_" class="st0" d="M379.1,264.4c-0.2-0.5-0.5-1-0.7-1.5"/>
				<path id="XMLID_172_" class="st0" d="M383.8,275.1c-1.5-3.5-3-7-4.5-10.4"/>
				<path id="XMLID_171_" class="st0" d="M394.1,302.9c0-0.2-0.1-0.3-0.1-0.5"/>
				<path id="XMLID_170_" class="st0" d="M394.9,305.2c-0.2-0.7-0.5-1.5-0.7-2.2"/>
				<path id="XMLID_169_" class="st0" d="M385.6,499.9c10.9-21.9,17.9-45.9,21.9-70.9c5.9-42.9,0.3-83.9-12.5-123.5"/>
				<path id="XMLID_168_" class="st0" d="M372.7,289.6c-0.3,0.3-0.5,0.5-0.7,0.7c-15.7,15.6-32.8,29.9-48.4,45.6
					c-1.2,1.3-1.3,3.3-0.1,4.6l11.8,13.3c1.1,1.3,3.1,1.4,4.4,0.2l40.2-38.2"/>
				<path id="XMLID_167_" class="st0" d="M395,305.5c0-0.1-0.1-0.2-0.1-0.3l-0.6-1.9c0,0,0-0.2-0.1-0.4c0,0,0,0,0,0
					c-0.1-0.2-0.4-0.3-0.8,0.1l-7.3,6.9l-6.2,5.9"/>
				<path id="XMLID_166_" class="st0" d="M372,290.3c4.1-4.2,7.2-6.8,9.9-9.3c2.2-2.4,2.4-4.1,2.1-5.6c-0.2-1.1-3.1-7.2-4.8-10.7
					c0-0.1-0.1-0.2-0.1-0.3c-0.3-0.6-0.5-1.1-0.7-1.5c0-0.1-0.1-0.2-0.1-0.3c0-0.1-0.1-0.2-0.1-0.2"/>
			</g>
		</g>
		<g id="XMLID_128_">
			<g id="XMLID_142_">
				<path id="XMLID_145_" class="st1" d="M425,500c9.4,0,17,7.7,17,17c0,9.4-7.6,17-17,17H175c-9.4,0-17-7.6-17-17
					c0-9,9.8-15.9,17-17c1.6-0.2,1.8,0,19.5,0c0,0,0.5,0,1.9,0c5.7,0,11.3,0,17,0c57.4,0,114.8,0,172.2,0
					C398.7,500,411.9,500,425,500z"/>
				<path id="XMLID_144_" class="st1" d="M379.2,264.7c1.7,3.6,4.6,9.6,4.8,10.7c0.2,1.5,0,3.1-2.1,5.6c-2.7,2.5-5.8,5.1-9.9,9.3
					l0,0c-15.7,15.6-32.8,29.9-48.4,45.6c-1.2,1.3-1.3,3.3-0.1,4.6l11.8,13.3c1.1,1.3,3.1,1.4,4.4,0.2l40.2-38.2l6.2-5.9l7.3-6.9
					c0.5-0.4,0.7-0.3,0.8-0.1c0,0,0,0,0,0c0.3,0.7,0.5,1.5,0.7,2.2c0,0.1,0.1,0.2,0.1,0.3c12.8,39.6,18.4,80.6,12.5,123.5
					c-4,25-11,49-21.9,70.9v0.1c-57.4,0-114.8,0-172.2,0v-0.1c-28.1-55.9-29.3-122.7-12.7-183c18.2-65.9,56-123.9,98.4-176.7l0-0.3
					c0.1,0,0.2,0,0.3,0c0.1,0,0.2,0,0.4,0l0,0.3c7.5,9,14.7,18.2,21.6,27.6c12.4,16.7,24,34,34.5,51.9c8.2,13.9,15.7,28.3,22.4,43
					c0,0.1,0.1,0.2,0.1,0.3c0.2,0.4,0.4,0.9,0.7,1.5C379.1,264.5,379.2,264.6,379.2,264.7z"/>
				<path id="XMLID_143_" class="st1" d="M299.4,103.8c9.9,0,18,8.1,18,18c0,9.8-7.9,17.8-17.6,18c-0.1,0-0.2,0-0.4,0
					c-0.1,0-0.2,0-0.3,0c-9.8-0.2-17.7-8.2-17.7-18C281.4,111.9,289.5,103.8,299.4,103.8z"/>
			</g>
			<g id="XMLID_129_">
				<path id="XMLID_141_" class="st1" d="M385.6,500c13.1,0,26.3,0,39.4,0c9.4,0,17,7.7,17,17c0,9.4-7.6,17-17,17H175
					c-9.4,0-17-7.6-17-17c0-9,9.8-15.9,17-17c1.6-0.2,1.8,0,19.5,0c0,0,0.5,0,1.9,0c5.7,0,11.3,0,17,0
					C270.8,500,328.2,500,385.6,500z"/>
				<path id="XMLID_140_" class="st1" d="M299.8,139.8c9.8-0.2,17.6-8.2,17.6-18c0-9.9-8.1-18-18-18s-18,8.1-18,18
					c0,9.8,7.9,17.8,17.7,18c0.1,0,0.2,0,0.3,0C299.6,139.8,299.7,139.8,299.8,139.8z"/>
				<path id="XMLID_139_" class="st1" d="M299.1,140.2c-42.4,52.8-80.2,110.8-98.4,176.7c-16.7,60.3-15.4,127.1,12.7,183"/>
				<path id="XMLID_138_" class="st1" d="M378.3,262.6c-6.7-14.7-14.2-29-22.4-43c-10.5-17.9-22.1-35.2-34.5-51.9
					c-7-9.4-14.2-18.6-21.6-27.6"/>
				<path id="XMLID_137_" class="st1" d="M379.1,264.4c-0.2-0.5-0.5-1-0.7-1.5"/>
				<path id="XMLID_136_" class="st1" d="M383.8,275.1c-1.5-3.5-3-7-4.5-10.4"/>
				<path id="XMLID_135_" class="st1" d="M394.1,302.9c0-0.2-0.1-0.3-0.1-0.5"/>
				<path id="XMLID_134_" class="st1" d="M394.9,305.2c-0.2-0.7-0.5-1.5-0.7-2.2"/>
				<path id="XMLID_133_" class="st1" d="M385.6,499.9c10.9-21.9,17.9-45.9,21.9-70.9c5.9-42.9,0.3-83.9-12.5-123.5"/>
				<path id="XMLID_132_" class="st1" d="M372.7,289.6c-0.3,0.3-0.5,0.5-0.7,0.7c-15.7,15.6-32.8,29.9-48.4,45.6
					c-1.2,1.3-1.3,3.3-0.1,4.6l11.8,13.3c1.1,1.3,3.1,1.4,4.4,0.2l40.2-38.2"/>
				<path id="XMLID_131_" class="st1" d="M395,305.5c0-0.1-0.1-0.2-0.1-0.3l-0.6-1.9c0,0,0-0.2-0.1-0.4c0,0,0,0,0,0
					c-0.1-0.2-0.4-0.3-0.8,0.1l-7.3,6.9l-6.2,5.9"/>
				<path id="XMLID_130_" class="st1" d="M372,290.3c4.1-4.2,7.2-6.8,9.9-9.3c2.2-2.4,2.4-4.1,2.1-5.6c-0.2-1.1-3.1-7.2-4.8-10.7
					c0-0.1-0.1-0.2-0.1-0.3c-0.3-0.6-0.5-1.1-0.7-1.5c0-0.1-0.1-0.2-0.1-0.3c0-0.1-0.1-0.2-0.1-0.2"/>
			</g>
		</g>
		<g id="XMLID_110_">
			<g id="XMLID_124_">
				<path id="XMLID_127_" class="st0" d="M425,500c9.4,0,17,7.7,17,17c0,9.4-7.6,17-17,17H175c-9.4,0-17-7.6-17-17
					c0-9,9.8-15.9,17-17c1.6-0.2,1.8,0,19.5,0c0,0,0.5,0,1.9,0c5.7,0,11.3,0,17,0c57.4,0,114.8,0,172.2,0
					C398.7,500,411.9,500,425,500z"/>
				<path id="XMLID_126_" class="st0" d="M379.2,264.7c1.7,3.6,4.6,9.6,4.8,10.7c0.2,1.5,0,3.1-2.1,5.6c-2.7,2.5-5.8,5.1-9.9,9.3
					l0,0c-15.7,15.6-32.8,29.9-48.4,45.6c-1.2,1.3-1.3,3.3-0.1,4.6l11.8,13.3c1.1,1.3,3.1,1.4,4.4,0.2l40.2-38.2l6.2-5.9l7.3-6.9
					c0.5-0.4,0.7-0.3,0.8-0.1c0,0,0,0,0,0c0.3,0.7,0.5,1.5,0.7,2.2c0,0.1,0.1,0.2,0.1,0.3c12.8,39.6,18.4,80.6,12.5,123.5
					c-4,25-11,49-21.9,70.9v0.1c-57.4,0-114.8,0-172.2,0v-0.1c-28.1-55.9-29.3-122.7-12.7-183c18.2-65.9,56-123.9,98.4-176.7l0-0.3
					c0.1,0,0.2,0,0.3,0c0.1,0,0.2,0,0.4,0l0,0.3c7.5,9,14.7,18.2,21.6,27.6c12.4,16.7,24,34,34.5,51.9c8.2,13.9,15.7,28.3,22.4,43
					c0,0.1,0.1,0.2,0.1,0.3c0.2,0.4,0.4,0.9,0.7,1.5C379.1,264.5,379.2,264.6,379.2,264.7z"/>
				<path id="XMLID_125_" class="st0" d="M299.4,103.8c9.9,0,18,8.1,18,18c0,9.8-7.9,17.8-17.6,18c-0.1,0-0.2,0-0.4,0
					c-0.1,0-0.2,0-0.3,0c-9.8-0.2-17.7-8.2-17.7-18C281.4,111.9,289.5,103.8,299.4,103.8z"/>
			</g>
			<g id="XMLID_111_">
				<path id="XMLID_123_" class="st0" d="M385.6,500c13.1,0,26.3,0,39.4,0c9.4,0,17,7.7,17,17c0,9.4-7.6,17-17,17H175
					c-9.4,0-17-7.6-17-17c0-9,9.8-15.9,17-17c1.6-0.2,1.8,0,19.5,0c0,0,0.5,0,1.9,0c5.7,0,11.3,0,17,0
					C270.8,500,328.2,500,385.6,500z"/>
				<path id="XMLID_122_" class="st0" d="M299.8,139.8c9.8-0.2,17.6-8.2,17.6-18c0-9.9-8.1-18-18-18s-18,8.1-18,18
					c0,9.8,7.9,17.8,17.7,18c0.1,0,0.2,0,0.3,0C299.6,139.8,299.7,139.8,299.8,139.8z"/>
				<path id="XMLID_121_" class="st0" d="M299.1,140.2c-42.4,52.8-80.2,110.8-98.4,176.7c-16.7,60.3-15.4,127.1,12.7,183"/>
				<path id="XMLID_120_" class="st0" d="M378.3,262.6c-6.7-14.7-14.2-29-22.4-43c-10.5-17.9-22.1-35.2-34.5-51.9
					c-7-9.4-14.2-18.6-21.6-27.6"/>
				<path id="XMLID_119_" class="st0" d="M379.1,264.4c-0.2-0.5-0.5-1-0.7-1.5"/>
				<path id="XMLID_118_" class="st0" d="M383.8,275.1c-1.5-3.5-3-7-4.5-10.4"/>
				<path id="XMLID_117_" class="st0" d="M394.1,302.9c0-0.2-0.1-0.3-0.1-0.5"/>
				<path id="XMLID_116_" class="st0" d="M394.9,305.2c-0.2-0.7-0.5-1.5-0.7-2.2"/>
				<path id="XMLID_115_" class="st0" d="M385.6,499.9c10.9-21.9,17.9-45.9,21.9-70.9c5.9-42.9,0.3-83.9-12.5-123.5"/>
				<path id="XMLID_114_" class="st0" d="M372.7,289.6c-0.3,0.3-0.5,0.5-0.7,0.7c-15.7,15.6-32.8,29.9-48.4,45.6
					c-1.2,1.3-1.3,3.3-0.1,4.6l11.8,13.3c1.1,1.3,3.1,1.4,4.4,0.2l40.2-38.2"/>
				<path id="XMLID_113_" class="st0" d="M395,305.5c0-0.1-0.1-0.2-0.1-0.3l-0.6-1.9c0,0,0-0.2-0.1-0.4c0,0,0,0,0,0
					c-0.1-0.2-0.4-0.3-0.8,0.1l-7.3,6.9l-6.2,5.9"/>
				<path id="XMLID_112_" class="st0" d="M372,290.3c4.1-4.2,7.2-6.8,9.9-9.3c2.2-2.4,2.4-4.1,2.1-5.6c-0.2-1.1-3.1-7.2-4.8-10.7
					c0-0.1-0.1-0.2-0.1-0.3c-0.3-0.6-0.5-1.1-0.7-1.5c0-0.1-0.1-0.2-0.1-0.3c0-0.1-0.1-0.2-0.1-0.2"/>
			</g>
		</g>
	</g>
	<line id="XMLID_856_" class="st2" x1="334.7" y1="342.4" x2="366.7" y2="312.2"/>
</g>
</svg>
