<?xml version="1.0" encoding="utf-8"?>
<!-- Generator: Adobe Illustrator 19.0.0, SVG Export Plug-In . SVG Version: 6.00 Build 0)  -->
<svg version="1.1" xmlns="http://www.w3.org/2000/svg" xmlns:xlink="http://www.w3.org/1999/xlink" x="0px" y="0px"
	 viewBox="0 0 600 600" style="enable-background:new 0 0 600 600;" xml:space="preserve">
<style type="text/css">
	.st0{fill:#FFFFFF;}
	.st1{fill:none;stroke:#000000;stroke-width:12;stroke-miterlimit:10;}
	.st2{fill:#FFFFFF;stroke:#000000;stroke-width:12;stroke-miterlimit:10;}
	.st3{fill:none;stroke:#000000;stroke-width:24;}
	.st4{fill:none;stroke:#FFFFFF;stroke-width:12;}
	.st5{fill:none;stroke:#FFFFFF;stroke-width:12;stroke-linecap:round;stroke-miterlimit:10;}
</style>
<g id="Layer_1">
</g>
<g id="Layer_2">
	<g id="XMLID_652_">
		<g id="XMLID_218_">
			<g id="XMLID_239_">
				<path id="XMLID_241_" class="st0" d="M428,199c-6.3,1.8-12.4,4.7-18.3,8c-10.8,6.1-21,13.5-32.6,18c-24.1,9.5-51.6,7-77.1,7.8
					c-0.4,0-0.9,0-1.3,0.1c-25.1-0.6-52,1.6-75.8-7.7c-11.6-4.6-21.8-11.9-32.6-18c-6-3.4-12.1-6.3-18.4-8.1c3-1.4,6.2-2.3,9.5-2.4
					c7.9-0.4,15.5,3.2,22,7.7c6.5,4.5,12.2,10,18.7,14.6c4.3,3,8.7,5.3,13.1,7.1c2.2-3.9,25.1-43.8,64.8-44.3
					c39.7,0.5,62.7,40.4,64.8,44.3c4.4-1.8,8.8-4.1,13.1-7.1c6.5-4.5,12.2-10.1,18.7-14.6c6.5-4.5,14.1-8,22-7.7
					C421.9,196.7,425,197.6,428,199z"/>
				<path id="XMLID_240_" class="st1" d="M428,199c-6.3,1.8-12.4,4.7-18.3,8c-10.8,6.1-21,13.5-32.6,18c-24.1,9.5-51.6,7-77.1,7.8
					c-0.4,0-0.9,0-1.3,0.1c-25.1-0.6-52,1.6-75.8-7.7c-11.6-4.6-21.8-11.9-32.6-18c-6-3.4-12.1-6.3-18.4-8.1c3-1.4,6.2-2.3,9.5-2.4
					c7.9-0.4,15.5,3.2,22,7.7c6.5,4.5,12.2,10,18.7,14.6c4.3,3,8.7,5.3,13.1,7.1c2.2-3.9,25.1-43.8,64.8-44.3
					c39.7,0.5,62.7,40.4,64.8,44.3c4.4-1.8,8.8-4.1,13.1-7.1c6.5-4.5,12.2-10.1,18.7-14.6c6.5-4.5,14.1-8,22-7.7
					C421.9,196.7,425,197.6,428,199z"/>
			</g>
			<polygon id="XMLID_238_" class="st2" points="356,110 356,134 312,134 312,178 288,178 288,134 244,134 244,110 288,110 288,66 
				312,66 312,110 			"/>
			<g id="XMLID_235_">
				<path id="XMLID_237_" class="st0" d="M465,517c0,9.3-7.7,17-17,17H152c-9.3,0-17-7.7-17-17c0-4.7,1.9-8.9,5-12
					c3.1-3.1,7.3-5,12-5h296C457.3,500,465,507.6,465,517z"/>
				<path id="XMLID_236_" class="st1" d="M465,517c0,9.3-7.7,17-17,17H152c-9.3,0-17-7.7-17-17c0-4.7,1.9-8.9,5-12
					c3.1-3.1,7.3-5,12-5h296C457.3,500,465,507.6,465,517z"/>
			</g>
			<g id="XMLID_232_">
				<path id="XMLID_234_" class="st0" d="M416.7,500H183.3c0.1-22,0.7-43-0.8-65h234.9C416.1,457,416.6,478,416.7,500z"/>
				<path id="XMLID_233_" class="st1" d="M416.7,500H183.3c0.1-22,0.7-43-0.8-65h234.9C416.1,457,416.6,478,416.7,500z"/>
			</g>
			<g id="XMLID_229_">
				<path id="XMLID_231_" class="st0" d="M242.2,393h-65.9c-1.8-6-4.3-11.1-7.7-16.2c-19.7-29.4-48.9-52.3-63.3-85.2
					c-5.6-13-8.6-27.5-6.1-41.4c2.1-12,8.2-23,16.1-32.2c10.1-11.8,25.1-20.5,40.6-21c5.6-0.2,10.9,0.6,16,2
					c-8.9,4.3-15.5,13.6-17.3,23.5c-2.4,13.2,2.2,26.8,9.3,38.3c9.1,14.8,22,26.8,33.9,39.3c12.3,12.9,22.2,26.9,30.6,42.6
					c3.8,7.2,8,14.9,10.4,22.7C240.8,372.2,242.2,386,242.2,393z"/>
				<path id="XMLID_230_" class="st1" d="M242.2,393h-65.9c-1.8-6-4.3-11.1-7.7-16.2c-19.7-29.4-48.9-52.3-63.3-85.2
					c-5.6-13-8.6-27.5-6.1-41.4c2.1-12,8.2-23,16.1-32.2c10.1-11.8,25.1-20.5,40.6-21c5.6-0.2,10.9,0.6,16,2
					c-8.9,4.3-15.5,13.6-17.3,23.5c-2.4,13.2,2.2,26.8,9.3,38.3c9.1,14.8,22,26.8,33.9,39.3c12.3,12.9,22.2,26.9,30.6,42.6
					c3.8,7.2,8,14.9,10.4,22.7C240.8,372.2,242.2,386,242.2,393z"/>
			</g>
			<g id="XMLID_226_">
				<path id="XMLID_228_" class="st0" d="M494.7,291.5c-14.3,32.9-43.6,55.8-63.3,85.2c-3.4,5.1-5.9,10.3-7.7,16.3h-65.9
					c0-7,1.4-20.8,3.4-27.5c2.3-7.8,6.6-15.5,10.4-22.7c8.4-15.7,18.3-29.7,30.6-42.6c11.9-12.5,24.8-24.5,33.9-39.3
					c7-11.5,11.7-25.1,9.3-38.3c-1.8-10-8.5-19.3-17.4-23.6c5.2-1.5,10.5-2.3,16.1-2.1c15.6,0.6,30.5,9.2,40.6,21
					c7.9,9.2,14,20.2,16.1,32.2C503.3,264,500.4,278.5,494.7,291.5z"/>
				<path id="XMLID_227_" class="st1" d="M494.7,291.5c-14.3,32.9-43.6,55.8-63.3,85.2c-3.4,5.1-5.9,10.3-7.7,16.3h-65.9
					c0-7,1.4-20.8,3.4-27.5c2.3-7.8,6.6-15.5,10.4-22.7c8.4-15.7,18.3-29.7,30.6-42.6c11.9-12.5,24.8-24.5,33.9-39.3
					c7-11.5,11.7-25.1,9.3-38.3c-1.8-10-8.5-19.3-17.4-23.6c5.2-1.5,10.5-2.3,16.1-2.1c15.6,0.6,30.5,9.2,40.6,21
					c7.9,9.2,14,20.2,16.1,32.2C503.3,264,500.4,278.5,494.7,291.5z"/>
			</g>
			<path id="XMLID_225_" class="st2" d="M300,232.9V393h-57.8c0-8-1.4-20.8-3.4-27.5c-2.3-7.8-6.6-15.5-10.4-22.7
				c-8.4-15.7-18.3-29.7-30.6-42.6c-11.9-12.5-24.8-24.5-33.9-39.3c-7-11.5-11.7-25.1-9.3-38.3c1.8-9.9,8.4-19.3,17.3-23.6
				c6.4,1.8,12.4,4.7,18.4,8.1c10.8,6.2,21,13.5,32.6,18c23.7,9.4,50.6,7.1,75.8,7.7C299.1,232.8,300,232.8,300,232.9z"/>
			<g id="XMLID_222_">
				<path id="XMLID_224_" class="st0" d="M436.1,260.8c-9.1,14.8-22,26.8-33.9,39.3C390,313,380,327.1,371.6,342.8
					c-3.8,7.2-8,14.9-10.4,22.7c-2,6.7-3.4,20.5-3.4,27.5H300V232.8c25.5-0.7,52.9,1.8,77.1-7.8c11.6-4.6,21.8-11.9,32.6-18
					c5.9-3.4,12-6.2,18.3-8c8.9,4.3,15.6,13.6,17.4,23.6C447.8,235.8,443.1,249.4,436.1,260.8z"/>
				<path id="XMLID_223_" class="st1" d="M436.1,260.8c-9.1,14.8-22,26.8-33.9,39.3C390,313,380,327.1,371.6,342.8
					c-3.8,7.2-8,14.9-10.4,22.7c-2,6.7-3.4,20.5-3.4,27.5H300V232.8c25.5-0.7,52.9,1.8,77.1-7.8c11.6-4.6,21.8-11.9,32.6-18
					c5.9-3.4,12-6.2,18.3-8c8.9,4.3,15.6,13.6,17.4,23.6C447.8,235.8,443.1,249.4,436.1,260.8z"/>
			</g>
			<g id="XMLID_219_">
				<path id="XMLID_221_" class="st0" d="M423.8,393c-3.6,11-4.8,23.2-5.8,35.3c-0.2,2.2-0.4,4.7-0.5,6.7H182.5
					c-0.2-2-0.3-4.4-0.5-6.7c-1-12.1-2.2-24.3-5.8-35.3H423.8z"/>
				<path id="XMLID_220_" class="st1" d="M423.8,393c-3.6,11-4.8,23.2-5.8,35.3c-0.2,2.2-0.4,4.7-0.5,6.7H182.5
					c-0.2-2-0.3-4.4-0.5-6.7c-1-12.1-2.2-24.3-5.8-35.3H423.8z"/>
			</g>
		</g>
		<g id="XMLID_194_">
			<g id="XMLID_215_">
				<path id="XMLID_217_" d="M428,199c-6.3,1.8-12.4,4.7-18.3,8c-10.8,6.1-21,13.5-32.6,18c-24.1,9.5-51.6,7-77.1,7.8
					c-0.4,0-0.9,0-1.3,0.1c-25.1-0.6-52,1.6-75.8-7.7c-11.6-4.6-21.8-11.9-32.6-18c-6-3.4-12.1-6.3-18.4-8.1c3-1.4,6.2-2.3,9.5-2.4
					c7.9-0.4,15.5,3.2,22,7.7c6.5,4.5,12.2,10,18.7,14.6c4.3,3,8.7,5.3,13.1,7.1c2.2-3.9,25.1-43.8,64.8-44.3
					c39.7,0.5,62.7,40.4,64.8,44.3c4.4-1.8,8.8-4.1,13.1-7.1c6.5-4.5,12.2-10.1,18.7-14.6c6.5-4.5,14.1-8,22-7.7
					C421.9,196.7,425,197.6,428,199z"/>
				<path id="XMLID_216_" d="M428,199c-6.3,1.8-12.4,4.7-18.3,8c-10.8,6.1-21,13.5-32.6,18c-24.1,9.5-51.6,7-77.1,7.8
					c-0.4,0-0.9,0-1.3,0.1c-25.1-0.6-52,1.6-75.8-7.7c-11.6-4.6-21.8-11.9-32.6-18c-6-3.4-12.1-6.3-18.4-8.1c3-1.4,6.2-2.3,9.5-2.4
					c7.9-0.4,15.5,3.2,22,7.7c6.5,4.5,12.2,10,18.7,14.6c4.3,3,8.7,5.3,13.1,7.1c2.2-3.9,25.1-43.8,64.8-44.3
					c39.7,0.5,62.7,40.4,64.8,44.3c4.4-1.8,8.8-4.1,13.1-7.1c6.5-4.5,12.2-10.1,18.7-14.6c6.5-4.5,14.1-8,22-7.7
					C421.9,196.7,425,197.6,428,199z"/>
			</g>
			<polygon id="XMLID_214_" points="356,110 356,134 312,134 312,178 288,178 288,134 244,134 244,110 288,110 288,66 312,66 
				312,110 			"/>
			<g id="XMLID_211_">
				<path id="XMLID_213_" d="M465,517c0,9.3-7.7,17-17,17H152c-9.3,0-17-7.7-17-17c0-4.7,1.9-8.9,5-12c3.1-3.1,7.3-5,12-5h296
					C457.3,500,465,507.6,465,517z"/>
				<path id="XMLID_212_" d="M465,517c0,9.3-7.7,17-17,17H152c-9.3,0-17-7.7-17-17c0-4.7,1.9-8.9,5-12c3.1-3.1,7.3-5,12-5h296
					C457.3,500,465,507.6,465,517z"/>
			</g>
			<g id="XMLID_208_">
				<path id="XMLID_210_" d="M416.7,500H183.3c0.1-22,0.7-43-0.8-65h234.9C416.1,457,416.6,478,416.7,500z"/>
				<path id="XMLID_209_" d="M416.7,500H183.3c0.1-22,0.7-43-0.8-65h234.9C416.1,457,416.6,478,416.7,500z"/>
			</g>
			<g id="XMLID_205_">
				<path id="XMLID_207_" d="M242.2,393h-65.9c-1.8-6-4.3-11.1-7.7-16.2c-19.7-29.4-48.9-52.3-63.3-85.2c-5.6-13-8.6-27.5-6.1-41.4
					c2.1-12,8.2-23,16.1-32.2c10.1-11.8,25.1-20.5,40.6-21c5.6-0.2,10.9,0.6,16,2c-8.9,4.3-15.5,13.6-17.3,23.5
					c-2.4,13.2,2.2,26.8,9.3,38.3c9.1,14.8,22,26.8,33.9,39.3c12.3,12.9,22.2,26.9,30.6,42.6c3.8,7.2,8,14.9,10.4,22.7
					C240.8,372.2,242.2,386,242.2,393z"/>
				<path id="XMLID_206_" d="M242.2,393h-65.9c-1.8-6-4.3-11.1-7.7-16.2c-19.7-29.4-48.9-52.3-63.3-85.2c-5.6-13-8.6-27.5-6.1-41.4
					c2.1-12,8.2-23,16.1-32.2c10.1-11.8,25.1-20.5,40.6-21c5.6-0.2,10.9,0.6,16,2c-8.9,4.3-15.5,13.6-17.3,23.5
					c-2.4,13.2,2.2,26.8,9.3,38.3c9.1,14.8,22,26.8,33.9,39.3c12.3,12.9,22.2,26.9,30.6,42.6c3.8,7.2,8,14.9,10.4,22.7
					C240.8,372.2,242.2,386,242.2,393z"/>
			</g>
			<g id="XMLID_202_">
				<path id="XMLID_204_" d="M494.7,291.5c-14.3,32.9-43.6,55.8-63.3,85.2c-3.4,5.1-5.9,10.3-7.7,16.3h-65.9c0-7,1.4-20.8,3.4-27.5
					c2.3-7.8,6.6-15.5,10.4-22.7c8.4-15.7,18.3-29.7,30.6-42.6c11.9-12.5,24.8-24.5,33.9-39.3c7-11.5,11.7-25.1,9.3-38.3
					c-1.8-10-8.5-19.3-17.4-23.6c5.2-1.5,10.5-2.3,16.1-2.1c15.6,0.6,30.5,9.2,40.6,21c7.9,9.2,14,20.2,16.1,32.2
					C503.3,264,500.4,278.5,494.7,291.5z"/>
				<path id="XMLID_203_" d="M494.7,291.5c-14.3,32.9-43.6,55.8-63.3,85.2c-3.4,5.1-5.9,10.3-7.7,16.3h-65.9c0-7,1.4-20.8,3.4-27.5
					c2.3-7.8,6.6-15.5,10.4-22.7c8.4-15.7,18.3-29.7,30.6-42.6c11.9-12.5,24.8-24.5,33.9-39.3c7-11.5,11.7-25.1,9.3-38.3
					c-1.8-10-8.5-19.3-17.4-23.6c5.2-1.5,10.5-2.3,16.1-2.1c15.6,0.6,30.5,9.2,40.6,21c7.9,9.2,14,20.2,16.1,32.2
					C503.3,264,500.4,278.5,494.7,291.5z"/>
			</g>
			<path id="XMLID_201_" d="M300,232.9V393h-57.8c0-8-1.4-20.8-3.4-27.5c-2.3-7.8-6.6-15.5-10.4-22.7c-8.4-15.7-18.3-29.7-30.6-42.6
				c-11.9-12.5-24.8-24.5-33.9-39.3c-7-11.5-11.7-25.1-9.3-38.3c1.8-9.9,8.4-19.3,17.3-23.6c6.4,1.8,12.4,4.7,18.4,8.1
				c10.8,6.2,21,13.5,32.6,18c23.7,9.4,50.6,7.1,75.8,7.7C299.1,232.8,300,232.8,300,232.9z"/>
			<g id="XMLID_198_">
				<path id="XMLID_200_" d="M436.1,260.8c-9.1,14.8-22,26.8-33.9,39.3C390,313,380,327.1,371.6,342.8c-3.8,7.2-8,14.9-10.4,22.7
					c-2,6.7-3.4,20.5-3.4,27.5H300V232.8c25.5-0.7,52.9,1.8,77.1-7.8c11.6-4.6,21.8-11.9,32.6-18c5.9-3.4,12-6.2,18.3-8
					c8.9,4.3,15.6,13.6,17.4,23.6C447.8,235.8,443.1,249.4,436.1,260.8z"/>
				<path id="XMLID_199_" d="M436.1,260.8c-9.1,14.8-22,26.8-33.9,39.3C390,313,380,327.1,371.6,342.8c-3.8,7.2-8,14.9-10.4,22.7
					c-2,6.7-3.4,20.5-3.4,27.5H300V232.8c25.5-0.7,52.9,1.8,77.1-7.8c11.6-4.6,21.8-11.9,32.6-18c5.9-3.4,12-6.2,18.3-8
					c8.9,4.3,15.6,13.6,17.4,23.6C447.8,235.8,443.1,249.4,436.1,260.8z"/>
			</g>
			<g id="XMLID_195_">
				<path id="XMLID_197_" d="M423.8,393c-3.6,11-4.8,23.2-5.8,35.3c-0.2,2.2-0.4,4.7-0.5,6.7H182.5c-0.2-2-0.3-4.4-0.5-6.7
					c-1-12.1-2.2-24.3-5.8-35.3H423.8z"/>
				<path id="XMLID_196_" d="M423.8,393c-3.6,11-4.8,23.2-5.8,35.3c-0.2,2.2-0.4,4.7-0.5,6.7H182.5c-0.2-2-0.3-4.4-0.5-6.7
					c-1-12.1-2.2-24.3-5.8-35.3H423.8z"/>
			</g>
		</g>
		<g id="XMLID_170_">
			<g id="XMLID_191_">
				<path id="XMLID_193_" class="st3" d="M428,199c-6.3,1.8-12.4,4.7-18.3,8c-10.8,6.1-21,13.5-32.6,18c-24.1,9.5-51.6,7-77.1,7.8
					c-0.4,0-0.9,0-1.3,0.1c-25.1-0.6-52,1.6-75.8-7.7c-11.6-4.6-21.8-11.9-32.6-18c-6-3.4-12.1-6.3-18.4-8.1c3-1.4,6.2-2.3,9.5-2.4
					c7.9-0.4,15.5,3.2,22,7.7c6.5,4.5,12.2,10,18.7,14.6c4.3,3,8.7,5.3,13.1,7.1c2.2-3.9,25.1-43.8,64.8-44.3
					c39.7,0.5,62.7,40.4,64.8,44.3c4.4-1.8,8.8-4.1,13.1-7.1c6.5-4.5,12.2-10.1,18.7-14.6c6.5-4.5,14.1-8,22-7.7
					C421.9,196.7,425,197.6,428,199z"/>
				<path id="XMLID_192_" class="st3" d="M428,199c-6.3,1.8-12.4,4.7-18.3,8c-10.8,6.1-21,13.5-32.6,18c-24.1,9.5-51.6,7-77.1,7.8
					c-0.4,0-0.9,0-1.3,0.1c-25.1-0.6-52,1.6-75.8-7.7c-11.6-4.6-21.8-11.9-32.6-18c-6-3.4-12.1-6.3-18.4-8.1c3-1.4,6.2-2.3,9.5-2.4
					c7.9-0.4,15.5,3.2,22,7.7c6.5,4.5,12.2,10,18.7,14.6c4.3,3,8.7,5.3,13.1,7.1c2.2-3.9,25.1-43.8,64.8-44.3
					c39.7,0.5,62.7,40.4,64.8,44.3c4.4-1.8,8.8-4.1,13.1-7.1c6.5-4.5,12.2-10.1,18.7-14.6c6.5-4.5,14.1-8,22-7.7
					C421.9,196.7,425,197.6,428,199z"/>
			</g>
			<polygon id="XMLID_190_" class="st3" points="356,110 356,134 312,134 312,178 288,178 288,134 244,134 244,110 288,110 288,66 
				312,66 312,110 			"/>
			<g id="XMLID_187_">
				<path id="XMLID_189_" class="st3" d="M465,517c0,9.3-7.7,17-17,17H152c-9.3,0-17-7.7-17-17c0-4.7,1.9-8.9,5-12
					c3.1-3.1,7.3-5,12-5h296C457.3,500,465,507.6,465,517z"/>
				<path id="XMLID_188_" class="st3" d="M465,517c0,9.3-7.7,17-17,17H152c-9.3,0-17-7.7-17-17c0-4.7,1.9-8.9,5-12
					c3.1-3.1,7.3-5,12-5h296C457.3,500,465,507.6,465,517z"/>
			</g>
			<g id="XMLID_184_">
				<path id="XMLID_186_" class="st3" d="M416.7,500H183.3c0.1-22,0.7-43-0.8-65h234.9C416.1,457,416.6,478,416.7,500z"/>
				<path id="XMLID_185_" class="st3" d="M416.7,500H183.3c0.1-22,0.7-43-0.8-65h234.9C416.1,457,416.6,478,416.7,500z"/>
			</g>
			<g id="XMLID_181_">
				<path id="XMLID_183_" class="st3" d="M242.2,393h-65.9c-1.8-6-4.3-11.1-7.7-16.2c-19.7-29.4-48.9-52.3-63.3-85.2
					c-5.6-13-8.6-27.5-6.1-41.4c2.1-12,8.2-23,16.1-32.2c10.1-11.8,25.1-20.5,40.6-21c5.6-0.2,10.9,0.6,16,2
					c-8.9,4.3-15.5,13.6-17.3,23.5c-2.4,13.2,2.2,26.8,9.3,38.3c9.1,14.8,22,26.8,33.9,39.3c12.3,12.9,22.2,26.9,30.6,42.6
					c3.8,7.2,8,14.9,10.4,22.7C240.8,372.2,242.2,386,242.2,393z"/>
				<path id="XMLID_182_" class="st3" d="M242.2,393h-65.9c-1.8-6-4.3-11.1-7.7-16.2c-19.7-29.4-48.9-52.3-63.3-85.2
					c-5.6-13-8.6-27.5-6.1-41.4c2.1-12,8.2-23,16.1-32.2c10.1-11.8,25.1-20.5,40.6-21c5.6-0.2,10.9,0.6,16,2
					c-8.9,4.3-15.5,13.6-17.3,23.5c-2.4,13.2,2.2,26.8,9.3,38.3c9.1,14.8,22,26.8,33.9,39.3c12.3,12.9,22.2,26.9,30.6,42.6
					c3.8,7.2,8,14.9,10.4,22.7C240.8,372.2,242.2,386,242.2,393z"/>
			</g>
			<g id="XMLID_178_">
				<path id="XMLID_180_" class="st3" d="M494.7,291.5c-14.3,32.9-43.6,55.8-63.3,85.2c-3.4,5.1-5.9,10.3-7.7,16.3h-65.9
					c0-7,1.4-20.8,3.4-27.5c2.3-7.8,6.6-15.5,10.4-22.7c8.4-15.7,18.3-29.7,30.6-42.6c11.9-12.5,24.8-24.5,33.9-39.3
					c7-11.5,11.7-25.1,9.3-38.3c-1.8-10-8.5-19.3-17.4-23.6c5.2-1.5,10.5-2.3,16.1-2.1c15.6,0.6,30.5,9.2,40.6,21
					c7.9,9.2,14,20.2,16.1,32.2C503.3,264,500.4,278.5,494.7,291.5z"/>
				<path id="XMLID_179_" class="st3" d="M494.7,291.5c-14.3,32.9-43.6,55.8-63.3,85.2c-3.4,5.1-5.9,10.3-7.7,16.3h-65.9
					c0-7,1.4-20.8,3.4-27.5c2.3-7.8,6.6-15.5,10.4-22.7c8.4-15.7,18.3-29.7,30.6-42.6c11.9-12.5,24.8-24.5,33.9-39.3
					c7-11.5,11.7-25.1,9.3-38.3c-1.8-10-8.5-19.3-17.4-23.6c5.2-1.5,10.5-2.3,16.1-2.1c15.6,0.6,30.5,9.2,40.6,21
					c7.9,9.2,14,20.2,16.1,32.2C503.3,264,500.4,278.5,494.7,291.5z"/>
			</g>
			<path id="XMLID_177_" class="st3" d="M300,232.9V393h-57.8c0-8-1.4-20.8-3.4-27.5c-2.3-7.8-6.6-15.5-10.4-22.7
				c-8.4-15.7-18.3-29.7-30.6-42.6c-11.9-12.5-24.8-24.5-33.9-39.3c-7-11.5-11.7-25.1-9.3-38.3c1.8-9.9,8.4-19.3,17.3-23.6
				c6.4,1.8,12.4,4.7,18.4,8.1c10.8,6.2,21,13.5,32.6,18c23.7,9.4,50.6,7.1,75.8,7.7C299.1,232.8,300,232.8,300,232.9z"/>
			<g id="XMLID_174_">
				<path id="XMLID_176_" class="st3" d="M436.1,260.8c-9.1,14.8-22,26.8-33.9,39.3C390,313,380,327.1,371.6,342.8
					c-3.8,7.2-8,14.9-10.4,22.7c-2,6.7-3.4,20.5-3.4,27.5H300V232.8c25.5-0.7,52.9,1.8,77.1-7.8c11.6-4.6,21.8-11.9,32.6-18
					c5.9-3.4,12-6.2,18.3-8c8.9,4.3,15.6,13.6,17.4,23.6C447.8,235.8,443.1,249.4,436.1,260.8z"/>
				<path id="XMLID_175_" class="st3" d="M436.1,260.8c-9.1,14.8-22,26.8-33.9,39.3C390,313,380,327.1,371.6,342.8
					c-3.8,7.2-8,14.9-10.4,22.7c-2,6.7-3.4,20.5-3.4,27.5H300V232.8c25.5-0.7,52.9,1.8,77.1-7.8c11.6-4.6,21.8-11.9,32.6-18
					c5.9-3.4,12-6.2,18.3-8c8.9,4.3,15.6,13.6,17.4,23.6C447.8,235.8,443.1,249.4,436.1,260.8z"/>
			</g>
			<g id="XMLID_171_">
				<path id="XMLID_173_" class="st3" d="M423.8,393c-3.6,11-4.8,23.2-5.8,35.3c-0.2,2.2-0.4,4.7-0.5,6.7H182.5
					c-0.2-2-0.3-4.4-0.5-6.7c-1-12.1-2.2-24.3-5.8-35.3H423.8z"/>
				<path id="XMLID_172_" class="st3" d="M423.8,393c-3.6,11-4.8,23.2-5.8,35.3c-0.2,2.2-0.4,4.7-0.5,6.7H182.5
					c-0.2-2-0.3-4.4-0.5-6.7c-1-12.1-2.2-24.3-5.8-35.3H423.8z"/>
			</g>
		</g>
		<g id="XMLID_146_">
			<g id="XMLID_167_">
				<path id="XMLID_169_" class="st4" d="M428,199c-6.3,1.8-12.4,4.7-18.3,8c-10.8,6.1-21,13.5-32.6,18c-24.1,9.5-51.6,7-77.1,7.8
					c-0.4,0-0.9,0-1.3,0.1c-25.1-0.6-52,1.6-75.8-7.7c-11.6-4.6-21.8-11.9-32.6-18c-6-3.4-12.1-6.3-18.4-8.1c3-1.4,6.2-2.3,9.5-2.4
					c7.9-0.4,15.5,3.2,22,7.7c6.5,4.5,12.2,10,18.7,14.6c4.3,3,8.7,5.3,13.1,7.1c2.2-3.9,25.1-43.8,64.8-44.3
					c39.7,0.5,62.7,40.4,64.8,44.3c4.4-1.8,8.8-4.1,13.1-7.1c6.5-4.5,12.2-10.1,18.7-14.6c6.5-4.5,14.1-8,22-7.7
					C421.9,196.7,425,197.6,428,199z"/>
				<path id="XMLID_168_" class="st4" d="M428,199c-6.3,1.8-12.4,4.7-18.3,8c-10.8,6.1-21,13.5-32.6,18c-24.1,9.5-51.6,7-77.1,7.8
					c-0.4,0-0.9,0-1.3,0.1c-25.1-0.6-52,1.6-75.8-7.7c-11.6-4.6-21.8-11.9-32.6-18c-6-3.4-12.1-6.3-18.4-8.1c3-1.4,6.2-2.3,9.5-2.4
					c7.9-0.4,15.5,3.2,22,7.7c6.5,4.5,12.2,10,18.7,14.6c4.3,3,8.7,5.3,13.1,7.1c2.2-3.9,25.1-43.8,64.8-44.3
					c39.7,0.5,62.7,40.4,64.8,44.3c4.4-1.8,8.8-4.1,13.1-7.1c6.5-4.5,12.2-10.1,18.7-14.6c6.5-4.5,14.1-8,22-7.7
					C421.9,196.7,425,197.6,428,199z"/>
			</g>
			<polygon id="XMLID_166_" class="st4" points="356,110 356,134 312,134 312,178 288,178 288,134 244,134 244,110 288,110 288,66 
				312,66 312,110 			"/>
			<g id="XMLID_163_">
				<path id="XMLID_165_" class="st4" d="M465,517c0,9.3-7.7,17-17,17H152c-9.3,0-17-7.7-17-17c0-4.7,1.9-8.9,5-12
					c3.1-3.1,7.3-5,12-5h296C457.3,500,465,507.6,465,517z"/>
				<path id="XMLID_164_" class="st4" d="M465,517c0,9.3-7.7,17-17,17H152c-9.3,0-17-7.7-17-17c0-4.7,1.9-8.9,5-12
					c3.1-3.1,7.3-5,12-5h296C457.3,500,465,507.6,465,517z"/>
			</g>
			<g id="XMLID_160_">
				<path id="XMLID_162_" class="st4" d="M416.7,500H183.3c0.1-22,0.7-43-0.8-65h234.9C416.1,457,416.6,478,416.7,500z"/>
				<path id="XMLID_161_" class="st4" d="M416.7,500H183.3c0.1-22,0.7-43-0.8-65h234.9C416.1,457,416.6,478,416.7,500z"/>
			</g>
			<g id="XMLID_157_">
				<path id="XMLID_159_" class="st4" d="M242.2,393h-65.9c-1.8-6-4.3-11.1-7.7-16.2c-19.7-29.4-48.9-52.3-63.3-85.2
					c-5.6-13-8.6-27.5-6.1-41.4c2.1-12,8.2-23,16.1-32.2c10.1-11.8,25.1-20.5,40.6-21c5.6-0.2,10.9,0.6,16,2
					c-8.9,4.3-15.5,13.6-17.3,23.5c-2.4,13.2,2.2,26.8,9.3,38.3c9.1,14.8,22,26.8,33.9,39.3c12.3,12.9,22.2,26.9,30.6,42.6
					c3.8,7.2,8,14.9,10.4,22.7C240.8,372.2,242.2,386,242.2,393z"/>
				<path id="XMLID_158_" class="st4" d="M242.2,393h-65.9c-1.8-6-4.3-11.1-7.7-16.2c-19.7-29.4-48.9-52.3-63.3-85.2
					c-5.6-13-8.6-27.5-6.1-41.4c2.1-12,8.2-23,16.1-32.2c10.1-11.8,25.1-20.5,40.6-21c5.6-0.2,10.9,0.6,16,2
					c-8.9,4.3-15.5,13.6-17.3,23.5c-2.4,13.2,2.2,26.8,9.3,38.3c9.1,14.8,22,26.8,33.9,39.3c12.3,12.9,22.2,26.9,30.6,42.6
					c3.8,7.2,8,14.9,10.4,22.7C240.8,372.2,242.2,386,242.2,393z"/>
			</g>
			<g id="XMLID_154_">
				<path id="XMLID_156_" class="st4" d="M494.7,291.5c-14.3,32.9-43.6,55.8-63.3,85.2c-3.4,5.1-5.9,10.3-7.7,16.3h-65.9
					c0-7,1.4-20.8,3.4-27.5c2.3-7.8,6.6-15.5,10.4-22.7c8.4-15.7,18.3-29.7,30.6-42.6c11.9-12.5,24.8-24.5,33.9-39.3
					c7-11.5,11.7-25.1,9.3-38.3c-1.8-10-8.5-19.3-17.4-23.6c5.2-1.5,10.5-2.3,16.1-2.1c15.6,0.6,30.5,9.2,40.6,21
					c7.9,9.2,14,20.2,16.1,32.2C503.3,264,500.4,278.5,494.7,291.5z"/>
				<path id="XMLID_155_" class="st4" d="M494.7,291.5c-14.3,32.9-43.6,55.8-63.3,85.2c-3.4,5.1-5.9,10.3-7.7,16.3h-65.9
					c0-7,1.4-20.8,3.4-27.5c2.3-7.8,6.6-15.5,10.4-22.7c8.4-15.7,18.3-29.7,30.6-42.6c11.9-12.5,24.8-24.5,33.9-39.3
					c7-11.5,11.7-25.1,9.3-38.3c-1.8-10-8.5-19.3-17.4-23.6c5.2-1.5,10.5-2.3,16.1-2.1c15.6,0.6,30.5,9.2,40.6,21
					c7.9,9.2,14,20.2,16.1,32.2C503.3,264,500.4,278.5,494.7,291.5z"/>
			</g>
			<path id="XMLID_153_" class="st4" d="M300,232.9V393h-57.8c0-8-1.4-20.8-3.4-27.5c-2.3-7.8-6.6-15.5-10.4-22.7
				c-8.4-15.7-18.3-29.7-30.6-42.6c-11.9-12.5-24.8-24.5-33.9-39.3c-7-11.5-11.7-25.1-9.3-38.3c1.8-9.9,8.4-19.3,17.3-23.6
				c6.4,1.8,12.4,4.7,18.4,8.1c10.8,6.2,21,13.5,32.6,18c23.7,9.4,50.6,7.1,75.8,7.7C299.1,232.8,300,232.8,300,232.9z"/>
			<g id="XMLID_150_">
				<path id="XMLID_152_" class="st4" d="M436.1,260.8c-9.1,14.8-22,26.8-33.9,39.3C390,313,380,327.1,371.6,342.8
					c-3.8,7.2-8,14.9-10.4,22.7c-2,6.7-3.4,20.5-3.4,27.5H300V232.8c25.5-0.7,52.9,1.8,77.1-7.8c11.6-4.6,21.8-11.9,32.6-18
					c5.9-3.4,12-6.2,18.3-8c8.9,4.3,15.6,13.6,17.4,23.6C447.8,235.8,443.1,249.4,436.1,260.8z"/>
				<path id="XMLID_151_" class="st4" d="M436.1,260.8c-9.1,14.8-22,26.8-33.9,39.3C390,313,380,327.1,371.6,342.8
					c-3.8,7.2-8,14.9-10.4,22.7c-2,6.7-3.4,20.5-3.4,27.5H300V232.8c25.5-0.7,52.9,1.8,77.1-7.8c11.6-4.6,21.8-11.9,32.6-18
					c5.9-3.4,12-6.2,18.3-8c8.9,4.3,15.6,13.6,17.4,23.6C447.8,235.8,443.1,249.4,436.1,260.8z"/>
			</g>
			<g id="XMLID_147_">
				<path id="XMLID_149_" class="st4" d="M423.8,393c-3.6,11-4.8,23.2-5.8,35.3c-0.2,2.2-0.4,4.7-0.5,6.7H182.5
					c-0.2-2-0.3-4.4-0.5-6.7c-1-12.1-2.2-24.3-5.8-35.3H423.8z"/>
				<path id="XMLID_148_" class="st4" d="M423.8,393c-3.6,11-4.8,23.2-5.8,35.3c-0.2,2.2-0.4,4.7-0.5,6.7H182.5
					c-0.2-2-0.3-4.4-0.5-6.7c-1-12.1-2.2-24.3-5.8-35.3H423.8z"/>
			</g>
		</g>
	</g>
	<line id="XMLID_662_" class="st5" x1="300" y1="244" x2="300" y2="198"/>
</g>
</svg>
