<?xml version="1.0" encoding="utf-8"?>
<!-- Generator: Adobe Illustrator 19.0.0, SVG Export Plug-In . SVG Version: 6.00 Build 0)  -->
<svg version="1.1" xmlns="http://www.w3.org/2000/svg" xmlns:xlink="http://www.w3.org/1999/xlink" x="0px" y="0px"
	 viewBox="0 0 600 600" style="enable-background:new 0 0 600 600;" xml:space="preserve">
<style type="text/css">
	.st0{display:none;}
	.st1{fill:none;stroke:#000000;stroke-width:12;stroke-miterlimit:10;}
	.st2{fill:none;stroke:#000000;stroke-width:24;}
	.st3{fill:none;stroke:#FFFFFF;stroke-width:12;}
</style>
<g id="Layer_1" class="st0">
</g>
<g id="Layer_2">
	<g id="XMLID_674_">
		<g id="XMLID_209_">
			<g id="XMLID_224_">
				<path id="XMLID_231_" d="M482.1,137.9c-6-2.9-10.1-9.1-10.1-16.2c0-9.9,8.1-18,18-18s18,8.1,18,18s-8.1,18-18,18
					C487.2,139.8,484.5,139.1,482.1,137.9z"/>
				<path id="XMLID_230_" d="M448,500c9.9,1.9,17,9.3,17,17c0,9.3-7.6,17-17,17H152c-9.4,0-17-7.7-17-17c0-4.7,1.9-8.9,5-12
					c3.1-3.1,7.3-5,12-5c7.4,0,14.9,0,22.4,0c2.9,0,5.8,0,8.6,0c78.3,0,156.6,0,234.9,0C427.9,500,438,500,448,500z"/>
				<path id="XMLID_229_" d="M420.5,384.8L420.5,384.8c-0.7,12.3-1.2,24.9-1.6,37.9l-0.2,0c0-8.5-53.5-15.4-118.7-15.4
					c-62,0-111.2,5.9-118,13.6c-0.4-12.9-0.9-25.5-1.7-37.9c6.8-7.8,56.4-13.8,119.7-13.8C366.4,369.1,420.5,376.1,420.5,384.8z"/>
				<path id="XMLID_228_" d="M418.7,422.6l0.2,0c-0.7,23.6-0.9,48.2-1,74.4v3c-78.3,0-156.6,0-234.9,0v-3
					c-0.1-26.8-0.3-52.1-1.1-76.2c6.8-7.6,56-13.6,118-13.6C365.1,407.3,418.7,414.1,418.7,422.6z"/>
				<circle id="XMLID_227_" cx="300" cy="84.2" r="18"/>
				<path id="XMLID_226_" d="M300.1,102.3c0,0,11.4,133.7,52,174.3c3.9,3.9,9.7,4.9,14.6,2.6c32.7-15.2,98.5-115,113.5-138.2
					l1.7,0.9c-41.9,81.4-56.4,155.3-61.4,242.9h0c0-8.7-54.1-15.7-120.5-15.7c-63.3,0-112.9,6-119.7,13.8
					c-5.1-87-19.7-160.5-61.5-241.5l1-0.5c15,23.2,80.8,123,113.5,138.2c4.9,2.3,10.8,1.3,14.6-2.6
					C288.2,236.3,299.9,104.3,300.1,102.3z"/>
				<path id="XMLID_225_" d="M117.9,137.9c-2.4,1.2-5,1.8-7.9,1.8c-9.9,0-18-8.1-18-18s8.1-18,18-18s18,8.1,18,18
					C128,128.9,123.9,135,117.9,137.9z"/>
			</g>
			<g id="XMLID_210_">
				<path id="XMLID_223_" class="st1" d="M417.9,500c10,0,20.1,0,30.1,0c9.9,1.9,17,9.3,17,17c0,9.3-7.6,17-17,17H152
					c-9.4,0-17-7.7-17-17c0-4.7,1.9-8.9,5-12c3.1-3.1,7.3-5,12-5c7.4,0,14.9,0,22.4,0c2.9,0,5.8,0,8.6,0
					C261.3,500,339.6,500,417.9,500z"/>
				<circle id="XMLID_222_" class="st1" cx="300" cy="84.2" r="18"/>
				<path id="XMLID_221_" class="st1" d="M110,103.8c-9.9,0-18,8.1-18,18s8.1,18,18,18c2.8,0,5.5-0.6,7.9-1.8
					c6-2.9,10.1-9.1,10.1-16.2C128,111.8,119.9,103.8,110,103.8z"/>
				<path id="XMLID_220_" class="st1" d="M490,103.8c-9.9,0-18,8.1-18,18c0,7.1,4.1,13.3,10.1,16.2c2.4,1.2,5,1.8,7.9,1.8
					c9.9,0,18-8.1,18-18S499.9,103.8,490,103.8z"/>
				<path id="XMLID_219_" class="st1" d="M183,497c-0.1-26.8-0.3-52.1-1.1-76.2c-0.4-12.9-0.9-25.5-1.7-37.9
					c-5.1-87-19.7-160.5-61.5-241.5c0,0,0,0,0-0.1"/>
				<path id="XMLID_218_" class="st1" d="M182.1,497c-0.1-26.1-0.3-50.8-1-74.4c-0.4-13-0.9-25.7-1.6-38.1
					c-5-87.7-19.6-161.7-61.6-243.2"/>
				<path id="XMLID_217_" class="st1" d="M482.1,141.4c-0.1,0.1-0.1,0.3-0.2,0.4c-41.9,81.4-56.4,155.3-61.4,242.9
					c-0.7,12.3-1.2,24.9-1.6,37.9c-0.7,23.6-0.9,48.2-1,74.4"/>
				<path id="XMLID_216_" class="st1" d="M299.9,407.3c-62,0-111.2,5.9-118,13.6c-0.5,0.6-0.8,1.2-0.8,1.8"/>
				<path id="XMLID_215_" class="st1" d="M418.7,422.6c0-8.5-53.5-15.4-118.7-15.4"/>
				<path id="XMLID_214_" class="st1" d="M299.9,369.1c-63.3,0-112.9,6-119.7,13.8c-0.5,0.5-0.7,1.1-0.8,1.6c0,0.1,0,0.1,0,0.2"/>
				<path id="XMLID_213_" class="st1" d="M420.5,384.8c0-8.7-54.1-15.7-120.5-15.7"/>
				<path id="XMLID_212_" class="st1" d="M116.7,136.1c0,0,0.4,0.6,1.2,1.8c0.5,0.8,1.1,1.8,1.9,3c15,23.2,80.8,123,113.5,138.2
					c4.9,2.3,10.8,1.3,14.6-2.6c40.3-40.3,52-172.3,52.2-174.3c0,0,0,0,0,0"/>
				<path id="XMLID_211_" class="st1" d="M300.1,102.3c0,0,11.4,133.7,52,174.3c3.9,3.9,9.7,4.9,14.6,2.6
					c32.7-15.2,98.5-115,113.5-138.2c0.8-1.2,1.4-2.2,1.9-3c0.8-1.2,1.1-1.8,1.1-1.8"/>
			</g>
		</g>
		<g id="XMLID_163_">
			<g id="XMLID_178_">
				<path id="XMLID_185_" class="st2" d="M482.1,137.9c-6-2.9-10.1-9.1-10.1-16.2c0-9.9,8.1-18,18-18s18,8.1,18,18s-8.1,18-18,18
					C487.2,139.8,484.5,139.1,482.1,137.9z"/>
				<path id="XMLID_184_" class="st2" d="M448,500c9.9,1.9,17,9.3,17,17c0,9.3-7.6,17-17,17H152c-9.4,0-17-7.7-17-17
					c0-4.7,1.9-8.9,5-12c3.1-3.1,7.3-5,12-5c7.4,0,14.9,0,22.4,0c2.9,0,5.8,0,8.6,0c78.3,0,156.6,0,234.9,0
					C427.9,500,438,500,448,500z"/>
				<path id="XMLID_183_" class="st2" d="M420.5,384.8L420.5,384.8c-0.7,12.3-1.2,24.9-1.6,37.9l-0.2,0c0-8.5-53.5-15.4-118.7-15.4
					c-62,0-111.2,5.9-118,13.6c-0.4-12.9-0.9-25.5-1.7-37.9c6.8-7.8,56.4-13.8,119.7-13.8C366.4,369.1,420.5,376.1,420.5,384.8z"/>
				<path id="XMLID_182_" class="st2" d="M418.7,422.6l0.2,0c-0.7,23.6-0.9,48.2-1,74.4v3c-78.3,0-156.6,0-234.9,0v-3
					c-0.1-26.8-0.3-52.1-1.1-76.2c6.8-7.6,56-13.6,118-13.6C365.1,407.3,418.7,414.1,418.7,422.6z"/>
				<circle id="XMLID_181_" class="st2" cx="300" cy="84.2" r="18"/>
				<path id="XMLID_180_" class="st2" d="M300.1,102.3c0,0,11.4,133.7,52,174.3c3.9,3.9,9.7,4.9,14.6,2.6
					c32.7-15.2,98.5-115,113.5-138.2l1.7,0.9c-41.9,81.4-56.4,155.3-61.4,242.9h0c0-8.7-54.1-15.7-120.5-15.7
					c-63.3,0-112.9,6-119.7,13.8c-5.1-87-19.7-160.5-61.5-241.5l1-0.5c15,23.2,80.8,123,113.5,138.2c4.9,2.3,10.8,1.3,14.6-2.6
					C288.2,236.3,299.9,104.3,300.1,102.3z"/>
				<path id="XMLID_179_" class="st2" d="M117.9,137.9c-2.4,1.2-5,1.8-7.9,1.8c-9.9,0-18-8.1-18-18s8.1-18,18-18s18,8.1,18,18
					C128,128.9,123.9,135,117.9,137.9z"/>
			</g>
			<g id="XMLID_164_">
				<path id="XMLID_177_" class="st2" d="M417.9,500c10,0,20.1,0,30.1,0c9.9,1.9,17,9.3,17,17c0,9.3-7.6,17-17,17H152
					c-9.4,0-17-7.7-17-17c0-4.7,1.9-8.9,5-12c3.1-3.1,7.3-5,12-5c7.4,0,14.9,0,22.4,0c2.9,0,5.8,0,8.6,0
					C261.3,500,339.6,500,417.9,500z"/>
				<circle id="XMLID_176_" class="st2" cx="300" cy="84.2" r="18"/>
				<path id="XMLID_175_" class="st2" d="M110,103.8c-9.9,0-18,8.1-18,18s8.1,18,18,18c2.8,0,5.5-0.6,7.9-1.8
					c6-2.9,10.1-9.1,10.1-16.2C128,111.8,119.9,103.8,110,103.8z"/>
				<path id="XMLID_174_" class="st2" d="M490,103.8c-9.9,0-18,8.1-18,18c0,7.1,4.1,13.3,10.1,16.2c2.4,1.2,5,1.8,7.9,1.8
					c9.9,0,18-8.1,18-18S499.9,103.8,490,103.8z"/>
				<path id="XMLID_173_" class="st2" d="M183,497c-0.1-26.8-0.3-52.1-1.1-76.2c-0.4-12.9-0.9-25.5-1.7-37.9
					c-5.1-87-19.7-160.5-61.5-241.5c0,0,0,0,0-0.1"/>
				<path id="XMLID_172_" class="st2" d="M182.1,497c-0.1-26.1-0.3-50.8-1-74.4c-0.4-13-0.9-25.7-1.6-38.1
					c-5-87.7-19.6-161.7-61.6-243.2"/>
				<path id="XMLID_171_" class="st2" d="M482.1,141.4c-0.1,0.1-0.1,0.3-0.2,0.4c-41.9,81.4-56.4,155.3-61.4,242.9
					c-0.7,12.3-1.2,24.9-1.6,37.9c-0.7,23.6-0.9,48.2-1,74.4"/>
				<path id="XMLID_170_" class="st2" d="M299.9,407.3c-62,0-111.2,5.9-118,13.6c-0.5,0.6-0.8,1.2-0.8,1.8"/>
				<path id="XMLID_169_" class="st2" d="M418.7,422.6c0-8.5-53.5-15.4-118.7-15.4"/>
				<path id="XMLID_168_" class="st2" d="M299.9,369.1c-63.3,0-112.9,6-119.7,13.8c-0.5,0.5-0.7,1.1-0.8,1.6c0,0.1,0,0.1,0,0.2"/>
				<path id="XMLID_167_" class="st2" d="M420.5,384.8c0-8.7-54.1-15.7-120.5-15.7"/>
				<path id="XMLID_166_" class="st2" d="M116.7,136.1c0,0,0.4,0.6,1.2,1.8c0.5,0.8,1.1,1.8,1.9,3c15,23.2,80.8,123,113.5,138.2
					c4.9,2.3,10.8,1.3,14.6-2.6c40.3-40.3,52-172.3,52.2-174.3c0,0,0,0,0,0"/>
				<path id="XMLID_165_" class="st2" d="M300.1,102.3c0,0,11.4,133.7,52,174.3c3.9,3.9,9.7,4.9,14.6,2.6
					c32.7-15.2,98.5-115,113.5-138.2c0.8-1.2,1.4-2.2,1.9-3c0.8-1.2,1.1-1.8,1.1-1.8"/>
			</g>
		</g>
		<g id="XMLID_140_">
			<g id="XMLID_155_">
				<path id="XMLID_162_" class="st3" d="M482.1,137.9c-6-2.9-10.1-9.1-10.1-16.2c0-9.9,8.1-18,18-18s18,8.1,18,18s-8.1,18-18,18
					C487.2,139.8,484.5,139.1,482.1,137.9z"/>
				<path id="XMLID_161_" class="st3" d="M448,500c9.9,1.9,17,9.3,17,17c0,9.3-7.6,17-17,17H152c-9.4,0-17-7.7-17-17
					c0-4.7,1.9-8.9,5-12c3.1-3.1,7.3-5,12-5c7.4,0,14.9,0,22.4,0c2.9,0,5.8,0,8.6,0c78.3,0,156.6,0,234.9,0
					C427.9,500,438,500,448,500z"/>
				<path id="XMLID_160_" class="st3" d="M420.5,384.8L420.5,384.8c-0.7,12.3-1.2,24.9-1.6,37.9l-0.2,0c0-8.5-53.5-15.4-118.7-15.4
					c-62,0-111.2,5.9-118,13.6c-0.4-12.9-0.9-25.5-1.7-37.9c6.8-7.8,56.4-13.8,119.7-13.8C366.4,369.1,420.5,376.1,420.5,384.8z"/>
				<path id="XMLID_159_" class="st3" d="M418.7,422.6l0.2,0c-0.7,23.6-0.9,48.2-1,74.4v3c-78.3,0-156.6,0-234.9,0v-3
					c-0.1-26.8-0.3-52.1-1.1-76.2c6.8-7.6,56-13.6,118-13.6C365.1,407.3,418.7,414.1,418.7,422.6z"/>
				<circle id="XMLID_158_" class="st3" cx="300" cy="84.2" r="18"/>
				<path id="XMLID_157_" class="st3" d="M300.1,102.3c0,0,11.4,133.7,52,174.3c3.9,3.9,9.7,4.9,14.6,2.6
					c32.7-15.2,98.5-115,113.5-138.2l1.7,0.9c-41.9,81.4-56.4,155.3-61.4,242.9h0c0-8.7-54.1-15.7-120.5-15.7
					c-63.3,0-112.9,6-119.7,13.8c-5.1-87-19.7-160.5-61.5-241.5l1-0.5c15,23.2,80.8,123,113.5,138.2c4.9,2.3,10.8,1.3,14.6-2.6
					C288.2,236.3,299.9,104.3,300.1,102.3z"/>
				<path id="XMLID_156_" class="st3" d="M117.9,137.9c-2.4,1.2-5,1.8-7.9,1.8c-9.9,0-18-8.1-18-18s8.1-18,18-18s18,8.1,18,18
					C128,128.9,123.9,135,117.9,137.9z"/>
			</g>
			<g id="XMLID_141_">
				<path id="XMLID_154_" class="st3" d="M417.9,500c10,0,20.1,0,30.1,0c9.9,1.9,17,9.3,17,17c0,9.3-7.6,17-17,17H152
					c-9.4,0-17-7.7-17-17c0-4.7,1.9-8.9,5-12c3.1-3.1,7.3-5,12-5c7.4,0,14.9,0,22.4,0c2.9,0,5.8,0,8.6,0
					C261.3,500,339.6,500,417.9,500z"/>
				<circle id="XMLID_153_" class="st3" cx="300" cy="84.2" r="18"/>
				<path id="XMLID_152_" class="st3" d="M110,103.8c-9.9,0-18,8.1-18,18s8.1,18,18,18c2.8,0,5.5-0.6,7.9-1.8
					c6-2.9,10.1-9.1,10.1-16.2C128,111.8,119.9,103.8,110,103.8z"/>
				<path id="XMLID_151_" class="st3" d="M490,103.8c-9.9,0-18,8.1-18,18c0,7.1,4.1,13.3,10.1,16.2c2.4,1.2,5,1.8,7.9,1.8
					c9.9,0,18-8.1,18-18S499.9,103.8,490,103.8z"/>
				<path id="XMLID_150_" class="st3" d="M183,497c-0.1-26.8-0.3-52.1-1.1-76.2c-0.4-12.9-0.9-25.5-1.7-37.9
					c-5.1-87-19.7-160.5-61.5-241.5c0,0,0,0,0-0.1"/>
				<path id="XMLID_149_" class="st3" d="M182.1,497c-0.1-26.1-0.3-50.8-1-74.4c-0.4-13-0.9-25.7-1.6-38.1
					c-5-87.7-19.6-161.7-61.6-243.2"/>
				<path id="XMLID_148_" class="st3" d="M482.1,141.4c-0.1,0.1-0.1,0.3-0.2,0.4c-41.9,81.4-56.4,155.3-61.4,242.9
					c-0.7,12.3-1.2,24.9-1.6,37.9c-0.7,23.6-0.9,48.2-1,74.4"/>
				<path id="XMLID_147_" class="st3" d="M299.9,407.3c-62,0-111.2,5.9-118,13.6c-0.5,0.6-0.8,1.2-0.8,1.8"/>
				<path id="XMLID_146_" class="st3" d="M418.7,422.6c0-8.5-53.5-15.4-118.7-15.4"/>
				<path id="XMLID_145_" class="st3" d="M299.9,369.1c-63.3,0-112.9,6-119.7,13.8c-0.5,0.5-0.7,1.1-0.8,1.6c0,0.1,0,0.1,0,0.2"/>
				<path id="XMLID_144_" class="st3" d="M420.5,384.8c0-8.7-54.1-15.7-120.5-15.7"/>
				<path id="XMLID_143_" class="st3" d="M116.7,136.1c0,0,0.4,0.6,1.2,1.8c0.5,0.8,1.1,1.8,1.9,3c15,23.2,80.8,123,113.5,138.2
					c4.9,2.3,10.8,1.3,14.6-2.6c40.3-40.3,52-172.3,52.2-174.3c0,0,0,0,0,0"/>
				<path id="XMLID_142_" class="st3" d="M300.1,102.3c0,0,11.4,133.7,52,174.3c3.9,3.9,9.7,4.9,14.6,2.6
					c32.7-15.2,98.5-115,113.5-138.2c0.8-1.2,1.4-2.2,1.9-3c0.8-1.2,1.1-1.8,1.1-1.8"/>
			</g>
		</g>
	</g>
</g>
</svg>
