<?xml version="1.0" encoding="utf-8"?>
<!-- Generator: Adobe Illustrator 19.0.0, SVG Export Plug-In . SVG Version: 6.00 Build 0)  -->
<svg version="1.1" xmlns="http://www.w3.org/2000/svg" xmlns:xlink="http://www.w3.org/1999/xlink" x="0px" y="0px"
	 viewBox="0 0 600 600" style="enable-background:new 0 0 600 600;" xml:space="preserve">
<style type="text/css">
	.st0{fill:none;stroke:#000000;stroke-width:12;stroke-linecap:round;stroke-linejoin:round;}
	.st1{fill:none;stroke:#000000;stroke-width:24;}
	.st2{fill:none;stroke:#FFFFFF;stroke-width:12;}
</style>
<g id="Layer_1">
</g>
<g id="Layer_2">
	<g id="XMLID_883_">
		<g id="XMLID_317_">
			<g id="XMLID_337_">
				<path id="XMLID_341_" d="M206,497c39.4-134,43-192.5,42.9-284H350c-0.1,91.5,3.5,150,42.9,284v3c-62.3,0-124.6,0-186.9,0V497z"
					/>
				<polygon id="XMLID_340_" points="196.5,185 402.5,185 402.5,193 402.5,194 384.5,213 350,213 248.9,213 214.5,213 196.5,194 
					196.5,193 				"/>
				<path id="XMLID_339_" d="M206,500c62.3,0,124.6,0,186.9,0c10.7,0,21.4,0,32.1,0c9.4,0,17,7.6,17,17c0,9.3-7.6,17-17,17H175
					c-9.4,0-17-7.7-17-17c0-9,9.8-15.9,17-17c1.6-0.2,1.8,0,19.5,0c0,0,0.5,0,1.9,0C199.6,500,202.8,500,206,500z"/>
				<polygon id="XMLID_338_" points="402.5,185 196.5,185 196.5,121 239.5,121 239.5,147 268.5,147 268.5,122 268.5,121 330.5,121 
					330.5,122 330.5,147 330.8,147 359.3,147 359.5,147 359.5,121 402.5,121 				"/>
			</g>
			<g id="XMLID_318_">
				<path id="XMLID_336_" class="st0" d="M392.9,500c10.7,0,21.4,0,32.1,0c9.4,0,17,7.6,17,17c0,9.3-7.6,17-17,17H175
					c-9.4,0-17-7.7-17-17c0-9,9.8-15.9,17-17c1.6-0.2,1.8,0,19.5,0c0,0,0.5,0,1.9,0c3.2,0,6.4,0,9.7,0
					C268.3,500,330.6,500,392.9,500z"/>
				<polyline id="XMLID_335_" class="st0" points="384.5,213 350,213 248.9,213 214.5,213 				"/>
				<path id="XMLID_334_" class="st0" d="M206,497c39.4-134,43-192.5,42.9-284"/>
				<line id="XMLID_333_" class="st0" x1="402.5" y1="185" x2="196.5" y2="185"/>
				<polyline id="XMLID_332_" class="st0" points="402.5,193 402.5,185 402.5,121 				"/>
				<polyline id="XMLID_331_" class="st0" points="196.5,193 196.5,185 196.5,121 				"/>
				<line id="XMLID_330_" class="st0" x1="402.5" y1="194" x2="384.5" y2="213"/>
				<path id="XMLID_329_" class="st0" d="M350,213c-0.1,91.5,3.5,150,42.9,284"/>
				<polyline id="XMLID_328_" class="st0" points="402.5,121 359.5,121 357.5,121 				"/>
				<polyline id="XMLID_327_" class="st0" points="241.5,121 239.5,121 196.5,121 				"/>
				<line id="XMLID_326_" class="st0" x1="196.5" y1="194" x2="214.5" y2="213"/>
				<polyline id="XMLID_325_" class="st0" points="359.5,121 359.5,147 359.5,152 				"/>
				<polyline id="XMLID_324_" class="st0" points="239.5,121 239.5,147 239.5,152 				"/>
				<line id="XMLID_323_" class="st0" x1="359.3" y1="147" x2="330.8" y2="147"/>
				<line id="XMLID_322_" class="st0" x1="268.5" y1="147" x2="239.5" y2="147"/>
				<polyline id="XMLID_321_" class="st0" points="330.5,152 330.5,147 330.5,122 				"/>
				<polyline id="XMLID_320_" class="st0" points="332.5,121 330.5,121 268.5,121 266.5,121 				"/>
				<polyline id="XMLID_319_" class="st0" points="268.5,122 268.5,147 268.5,152 				"/>
			</g>
		</g>
		<g id="XMLID_267_">
			<g id="XMLID_287_">
				<path id="XMLID_291_" class="st1" d="M206,497c39.4-134,43-192.5,42.9-284H350c-0.1,91.5,3.5,150,42.9,284v3
					c-62.3,0-124.6,0-186.9,0V497z"/>
				<polygon id="XMLID_290_" class="st1" points="196.5,185 402.5,185 402.5,193 402.5,194 384.5,213 350,213 248.9,213 214.5,213 
					196.5,194 196.5,193 				"/>
				<path id="XMLID_289_" class="st1" d="M206,500c62.3,0,124.6,0,186.9,0c10.7,0,21.4,0,32.1,0c9.4,0,17,7.6,17,17
					c0,9.3-7.6,17-17,17H175c-9.4,0-17-7.7-17-17c0-9,9.8-15.9,17-17c1.6-0.2,1.8,0,19.5,0c0,0,0.5,0,1.9,0
					C199.6,500,202.8,500,206,500z"/>
				<polygon id="XMLID_288_" class="st1" points="402.5,185 196.5,185 196.5,121 239.5,121 239.5,147 268.5,147 268.5,122 
					268.5,121 330.5,121 330.5,122 330.5,147 330.8,147 359.3,147 359.5,147 359.5,121 402.5,121 				"/>
			</g>
			<g id="XMLID_268_">
				<path id="XMLID_286_" class="st1" d="M392.9,500c10.7,0,21.4,0,32.1,0c9.4,0,17,7.6,17,17c0,9.3-7.6,17-17,17H175
					c-9.4,0-17-7.7-17-17c0-9,9.8-15.9,17-17c1.6-0.2,1.8,0,19.5,0c0,0,0.5,0,1.9,0c3.2,0,6.4,0,9.7,0
					C268.3,500,330.6,500,392.9,500z"/>
				<polyline id="XMLID_285_" class="st1" points="384.5,213 350,213 248.9,213 214.5,213 				"/>
				<path id="XMLID_284_" class="st1" d="M206,497c39.4-134,43-192.5,42.9-284"/>
				<line id="XMLID_283_" class="st1" x1="402.5" y1="185" x2="196.5" y2="185"/>
				<polyline id="XMLID_282_" class="st1" points="402.5,193 402.5,185 402.5,121 				"/>
				<polyline id="XMLID_281_" class="st1" points="196.5,193 196.5,185 196.5,121 				"/>
				<line id="XMLID_280_" class="st1" x1="402.5" y1="194" x2="384.5" y2="213"/>
				<path id="XMLID_279_" class="st1" d="M350,213c-0.1,91.5,3.5,150,42.9,284"/>
				<polyline id="XMLID_278_" class="st1" points="402.5,121 359.5,121 357.5,121 				"/>
				<polyline id="XMLID_277_" class="st1" points="241.5,121 239.5,121 196.5,121 				"/>
				<line id="XMLID_276_" class="st1" x1="196.5" y1="194" x2="214.5" y2="213"/>
				<polyline id="XMLID_275_" class="st1" points="359.5,121 359.5,147 359.5,152 				"/>
				<polyline id="XMLID_274_" class="st1" points="239.5,121 239.5,147 239.5,152 				"/>
				<line id="XMLID_273_" class="st1" x1="359.3" y1="147" x2="330.8" y2="147"/>
				<line id="XMLID_272_" class="st1" x1="268.5" y1="147" x2="239.5" y2="147"/>
				<polyline id="XMLID_271_" class="st1" points="330.5,152 330.5,147 330.5,122 				"/>
				<polyline id="XMLID_270_" class="st1" points="332.5,121 330.5,121 268.5,121 266.5,121 				"/>
				<polyline id="XMLID_269_" class="st1" points="268.5,122 268.5,147 268.5,152 				"/>
			</g>
		</g>
		<g id="XMLID_242_">
			<g id="XMLID_262_">
				<path id="XMLID_266_" class="st2" d="M206,497c39.4-134,43-192.5,42.9-284H350c-0.1,91.5,3.5,150,42.9,284v3
					c-62.3,0-124.6,0-186.9,0V497z"/>
				<polygon id="XMLID_265_" class="st2" points="196.5,185 402.5,185 402.5,193 402.5,194 384.5,213 350,213 248.9,213 214.5,213 
					196.5,194 196.5,193 				"/>
				<path id="XMLID_264_" class="st2" d="M206,500c62.3,0,124.6,0,186.9,0c10.7,0,21.4,0,32.1,0c9.4,0,17,7.6,17,17
					c0,9.3-7.6,17-17,17H175c-9.4,0-17-7.7-17-17c0-9,9.8-15.9,17-17c1.6-0.2,1.8,0,19.5,0c0,0,0.5,0,1.9,0
					C199.6,500,202.8,500,206,500z"/>
				<polygon id="XMLID_263_" class="st2" points="402.5,185 196.5,185 196.5,121 239.5,121 239.5,147 268.5,147 268.5,122 
					268.5,121 330.5,121 330.5,122 330.5,147 330.8,147 359.3,147 359.5,147 359.5,121 402.5,121 				"/>
			</g>
			<g id="XMLID_243_">
				<path id="XMLID_261_" class="st2" d="M392.9,500c10.7,0,21.4,0,32.1,0c9.4,0,17,7.6,17,17c0,9.3-7.6,17-17,17H175
					c-9.4,0-17-7.7-17-17c0-9,9.8-15.9,17-17c1.6-0.2,1.8,0,19.5,0c0,0,0.5,0,1.9,0c3.2,0,6.4,0,9.7,0
					C268.3,500,330.6,500,392.9,500z"/>
				<polyline id="XMLID_260_" class="st2" points="384.5,213 350,213 248.9,213 214.5,213 				"/>
				<path id="XMLID_259_" class="st2" d="M206,497c39.4-134,43-192.5,42.9-284"/>
				<line id="XMLID_258_" class="st2" x1="402.5" y1="185" x2="196.5" y2="185"/>
				<polyline id="XMLID_257_" class="st2" points="402.5,193 402.5,185 402.5,121 				"/>
				<polyline id="XMLID_256_" class="st2" points="196.5,193 196.5,185 196.5,121 				"/>
				<line id="XMLID_255_" class="st2" x1="402.5" y1="194" x2="384.5" y2="213"/>
				<path id="XMLID_254_" class="st2" d="M350,213c-0.1,91.5,3.5,150,42.9,284"/>
				<polyline id="XMLID_253_" class="st2" points="402.5,121 359.5,121 357.5,121 				"/>
				<polyline id="XMLID_252_" class="st2" points="241.5,121 239.5,121 196.5,121 				"/>
				<line id="XMLID_251_" class="st2" x1="196.5" y1="194" x2="214.5" y2="213"/>
				<polyline id="XMLID_250_" class="st2" points="359.5,121 359.5,147 359.5,152 				"/>
				<polyline id="XMLID_249_" class="st2" points="239.5,121 239.5,147 239.5,152 				"/>
				<line id="XMLID_248_" class="st2" x1="359.3" y1="147" x2="330.8" y2="147"/>
				<line id="XMLID_247_" class="st2" x1="268.5" y1="147" x2="239.5" y2="147"/>
				<polyline id="XMLID_246_" class="st2" points="330.5,152 330.5,147 330.5,122 				"/>
				<polyline id="XMLID_245_" class="st2" points="332.5,121 330.5,121 268.5,121 266.5,121 				"/>
				<polyline id="XMLID_244_" class="st2" points="268.5,122 268.5,147 268.5,152 				"/>
			</g>
		</g>
	</g>
</g>
</svg>
