<?xml version="1.0" encoding="utf-8"?>
<!-- Generator: Adobe Illustrator 19.0.0, SVG Export Plug-In . SVG Version: 6.00 Build 0)  -->
<svg version="1.1" xmlns="http://www.w3.org/2000/svg" xmlns:xlink="http://www.w3.org/1999/xlink" x="0px" y="0px"
	 viewBox="0 0 600 600" style="enable-background:new 0 0 600 600;" xml:space="preserve">
<style type="text/css">
	.st0{fill:none;stroke:#000000;stroke-width:15;stroke-miterlimit:10;}
	.st1{fill:#FFFFFF;}
	.st2{fill:none;stroke:#000000;stroke-width:12;stroke-linecap:round;stroke-linejoin:round;}
	.st3{fill:none;stroke:#FFFFFF;stroke-width:24;}
	.st4{fill:none;stroke:#000000;stroke-width:12;stroke-linecap:round;}
</style>
<g id="Layer_1">
</g>
<g id="Layer_2">
	<path id="XMLID_903_" class="st0" d="M107.5,283.5"/>
	<g id="XMLID_886_">
		<g id="XMLID_101_">
			<g id="XMLID_107_">
				<path id="XMLID_111_" class="st1" d="M196.4,500c60,0,120,0,180,0c9.2,0,18.3,0,27.5,0c7,0,14.1,0,21.1,0c9.4,0,17,7.6,17,17
					c0,9.3-7.6,17-17,17H175c-9.4,0-17-7.7-17-17c0-9,9.8-15.9,17-17c1.6-0.2,1.8,0,19.5,0c0,0,0,0,0.1,0
					C194.7,500,195.3,500,196.4,500z"/>
				<path id="XMLID_108_" class="st1" d="M376.4,500c-60,0-120,0-180,0c-1.1,0-1.6,0-1.8,0c7.9-52.6,22.7-104.6,56-147.1
					c17.4-22.3,38.7-41.4,54.5-64.9c12-17.8,21.6-39.7,28.2-60.1c-5.5,17.2-33,24.4-48,27.1c-12.1,2.2-24.1,3.4-35.7,7.9
					c-11.3,4.4-21.9,10.4-33.5,14c-9.9,3.1-21.9,4.2-27.5-12c0,0,0-0.1,0-0.2c-1.7-24.1,22.7-43.1,39.3-57.6
					c13.3-11.5,17.8-16,26.8-31c4.7-7.8,8.4-16.2,14.1-23.3c10.2-12.6,25.8-12.8,40-20.1c0.1,0,0.2-0.1,0.2-0.2
					c8.9-12.5,9.9-22.2,9.7-26.7c0-1.6,1.7-2.7,3.2-2.4c5.6,1,17,5.1,20.1,21.7c1,5.6,14,9.4,18.3,11.8c7.7,4.3,15.2,9.1,21.5,15.3
					c17.4,17.5,23.1,43.5,24.4,68.1c2.4,45.4-7.4,90.4-13.9,135.4c-6.7,46.3-12.8,102.1,11.7,144.1v0.1
					C394.7,500,385.5,500,376.4,500z M288,163.5c0-1.7-1.3-3-3-3s-3,1.3-3,3s1.3,3,3,3S288,165.2,288,163.5z"/>
			</g>
			<g id="XMLID_102_">
				<path id="XMLID_106_" class="st2" d="M403.9,500c7,0,14.1,0,21.1,0c9.4,0,17,7.6,17,17c0,9.3-7.6,17-17,17H175
					c-9.4,0-17-7.7-17-17c0-9,9.8-15.9,17-17c1.6-0.2,1.8,0,19.5,0c0,0,0,0,0.1,0c0.2,0,0.8,0,1.8,0c60,0,120,0,180,0
					C385.5,500,394.7,500,403.9,500z"/>
				<path id="XMLID_105_" class="st2" d="M403.9,499.9c-24.5-41.9-18.4-97.8-11.7-144.1c6.5-45,16.3-90,13.9-135.4
					c-1.3-24.6-7-50.6-24.4-68.1c-6.3-6.3-13.7-11.1-21.5-15.3c-4.3-2.4-17.3-6.1-18.3-11.8c-3.1-16.7-14.4-20.7-20.1-21.7
					c-1.6-0.3-3.3,0.8-3.2,2.4c0.1,4.5-0.9,14.3-9.7,26.7c0,0.1-0.1,0.1-0.2,0.2c-14.2,7.3-29.8,7.5-40,20.1
					c-5.7,7.1-9.4,15.5-14.1,23.3c-9.1,15-13.6,19.5-26.8,31c-16.6,14.4-41,33.5-39.3,57.6c0,0,0,0.1,0,0.2
					c5.7,16.2,17.6,15,27.5,12c11.6-3.6,22.3-9.6,33.5-14c11.5-4.5,23.5-5.8,35.7-7.9c15-2.7,42.5-9.9,48-27.1
					c-6.5,20.4-16.2,42.3-28.2,60.1c-15.8,23.5-37.1,42.7-54.5,64.9c-33.2,42.4-48.1,94.5-56,147.1"/>
				<path id="XMLID_104_" class="st2" d="M382.8,236.5c-2.9,43.3-10.2,86.1-16.6,128.8c-6.5,43.7-10.4,94,10.1,134.7"/>
				<path id="XMLID_103_" class="st2" d="M282,163.5c0,1.7,1.3,3,3,3s3-1.3,3-3s-1.3-3-3-3S282,161.8,282,163.5z"/>
			</g>
		</g>
		<g id="XMLID_79_">
			<g id="XMLID_85_">
				<path id="XMLID_89_" class="st3" d="M196.4,500c60,0,120,0,180,0c9.2,0,18.3,0,27.5,0c7,0,14.1,0,21.1,0c9.4,0,17,7.6,17,17
					c0,9.3-7.6,17-17,17H175c-9.4,0-17-7.7-17-17c0-9,9.8-15.9,17-17c1.6-0.2,1.8,0,19.5,0c0,0,0,0,0.1,0
					C194.7,500,195.3,500,196.4,500z"/>
				<path id="XMLID_86_" class="st3" d="M376.4,500c-60,0-120,0-180,0c-1.1,0-1.6,0-1.8,0c7.9-52.6,22.7-104.6,56-147.1
					c17.4-22.3,38.7-41.4,54.5-64.9c12-17.8,21.6-39.7,28.2-60.1c-5.5,17.2-33,24.4-48,27.1c-12.1,2.2-24.1,3.4-35.7,7.9
					c-11.3,4.4-21.9,10.4-33.5,14c-9.9,3.1-21.9,4.2-27.5-12c0,0,0-0.1,0-0.2c-1.7-24.1,22.7-43.1,39.3-57.6
					c13.3-11.5,17.8-16,26.8-31c4.7-7.8,8.4-16.2,14.1-23.3c10.2-12.6,25.8-12.8,40-20.1c0.1,0,0.2-0.1,0.2-0.2
					c8.9-12.5,9.9-22.2,9.7-26.7c0-1.6,1.7-2.7,3.2-2.4c5.6,1,17,5.1,20.1,21.7c1,5.6,14,9.4,18.3,11.8c7.7,4.3,15.2,9.1,21.5,15.3
					c17.4,17.5,23.1,43.5,24.4,68.1c2.4,45.4-7.4,90.4-13.9,135.4c-6.7,46.3-12.8,102.1,11.7,144.1v0.1
					C394.7,500,385.5,500,376.4,500z M288,163.5c0-1.7-1.3-3-3-3s-3,1.3-3,3s1.3,3,3,3S288,165.2,288,163.5z"/>
			</g>
			<g id="XMLID_80_">
				<path id="XMLID_84_" class="st3" d="M403.9,500c7,0,14.1,0,21.1,0c9.4,0,17,7.6,17,17c0,9.3-7.6,17-17,17H175
					c-9.4,0-17-7.7-17-17c0-9,9.8-15.9,17-17c1.6-0.2,1.8,0,19.5,0c0,0,0,0,0.1,0c0.2,0,0.8,0,1.8,0c60,0,120,0,180,0
					C385.5,500,394.7,500,403.9,500z"/>
				<path id="XMLID_83_" class="st3" d="M403.9,499.9c-24.5-41.9-18.4-97.8-11.7-144.1c6.5-45,16.3-90,13.9-135.4
					c-1.3-24.6-7-50.6-24.4-68.1c-6.3-6.3-13.7-11.1-21.5-15.3c-4.3-2.4-17.3-6.1-18.3-11.8c-3.1-16.7-14.4-20.7-20.1-21.7
					c-1.6-0.3-3.3,0.8-3.2,2.4c0.1,4.5-0.9,14.3-9.7,26.7c0,0.1-0.1,0.1-0.2,0.2c-14.2,7.3-29.8,7.5-40,20.1
					c-5.7,7.1-9.4,15.5-14.1,23.3c-9.1,15-13.6,19.5-26.8,31c-16.6,14.4-41,33.5-39.3,57.6c0,0,0,0.1,0,0.2
					c5.7,16.2,17.6,15,27.5,12c11.6-3.6,22.3-9.6,33.5-14c11.5-4.5,23.5-5.8,35.7-7.9c15-2.7,42.5-9.9,48-27.1
					c-6.5,20.4-16.2,42.3-28.2,60.1c-15.8,23.5-37.1,42.7-54.5,64.9c-33.2,42.4-48.1,94.5-56,147.1"/>
				<path id="XMLID_82_" class="st3" d="M382.8,236.5c-2.9,43.3-10.2,86.1-16.6,128.8c-6.5,43.7-10.4,94,10.1,134.7"/>
				<path id="XMLID_81_" class="st3" d="M282,163.5c0,1.7,1.3,3,3,3s3-1.3,3-3s-1.3-3-3-3S282,161.8,282,163.5z"/>
			</g>
		</g>
		<g id="XMLID_68_">
			<g id="XMLID_74_">
				<path id="XMLID_78_" class="st4" d="M196.4,500c60,0,120,0,180,0c9.2,0,18.3,0,27.5,0c7,0,14.1,0,21.1,0c9.4,0,17,7.6,17,17
					c0,9.3-7.6,17-17,17H175c-9.4,0-17-7.7-17-17c0-9,9.8-15.9,17-17c1.6-0.2,1.8,0,19.5,0c0,0,0,0,0.1,0
					C194.7,500,195.3,500,196.4,500z"/>
				<path id="XMLID_75_" class="st4" d="M376.4,500c-60,0-120,0-180,0c-1.1,0-1.6,0-1.8,0c7.9-52.6,22.7-104.6,56-147.1
					c17.4-22.3,38.7-41.4,54.5-64.9c12-17.8,21.6-39.7,28.2-60.1c-5.5,17.2-33,24.4-48,27.1c-12.1,2.2-24.1,3.4-35.7,7.9
					c-11.3,4.4-21.9,10.4-33.5,14c-9.9,3.1-21.9,4.2-27.5-12c0,0,0-0.1,0-0.2c-1.7-24.1,22.7-43.1,39.3-57.6
					c13.3-11.5,17.8-16,26.8-31c4.7-7.8,8.4-16.2,14.1-23.3c10.2-12.6,25.8-12.8,40-20.1c0.1,0,0.2-0.1,0.2-0.2
					c8.9-12.5,9.9-22.2,9.7-26.7c0-1.6,1.7-2.7,3.2-2.4c5.6,1,17,5.1,20.1,21.7c1,5.6,14,9.4,18.3,11.8c7.7,4.3,15.2,9.1,21.5,15.3
					c17.4,17.5,23.1,43.5,24.4,68.1c2.4,45.4-7.4,90.4-13.9,135.4c-6.7,46.3-12.8,102.1,11.7,144.1v0.1
					C394.7,500,385.5,500,376.4,500z M288,163.5c0-1.7-1.3-3-3-3s-3,1.3-3,3s1.3,3,3,3S288,165.2,288,163.5z"/>
			</g>
			<g id="XMLID_69_">
				<path id="XMLID_73_" class="st4" d="M403.9,500c7,0,14.1,0,21.1,0c9.4,0,17,7.6,17,17c0,9.3-7.6,17-17,17H175
					c-9.4,0-17-7.7-17-17c0-9,9.8-15.9,17-17c1.6-0.2,1.8,0,19.5,0c0,0,0,0,0.1,0c0.2,0,0.8,0,1.8,0c60,0,120,0,180,0
					C385.5,500,394.7,500,403.9,500z"/>
				<path id="XMLID_72_" class="st4" d="M403.9,499.9c-24.5-41.9-18.4-97.8-11.7-144.1c6.5-45,16.3-90,13.9-135.4
					c-1.3-24.6-7-50.6-24.4-68.1c-6.3-6.3-13.7-11.1-21.5-15.3c-4.3-2.4-17.3-6.1-18.3-11.8c-3.1-16.7-14.4-20.7-20.1-21.7
					c-1.6-0.3-3.3,0.8-3.2,2.4c0.1,4.5-0.9,14.3-9.7,26.7c0,0.1-0.1,0.1-0.2,0.2c-14.2,7.3-29.8,7.5-40,20.1
					c-5.7,7.1-9.4,15.5-14.1,23.3c-9.1,15-13.6,19.5-26.8,31c-16.6,14.4-41,33.5-39.3,57.6c0,0,0,0.1,0,0.2
					c5.7,16.2,17.6,15,27.5,12c11.6-3.6,22.3-9.6,33.5-14c11.5-4.5,23.5-5.8,35.7-7.9c15-2.7,42.5-9.9,48-27.1
					c-6.5,20.4-16.2,42.3-28.2,60.1c-15.8,23.5-37.1,42.7-54.5,64.9c-33.2,42.4-48.1,94.5-56,147.1"/>
				<path id="XMLID_71_" class="st4" d="M382.8,236.5c-2.9,43.3-10.2,86.1-16.6,128.8c-6.5,43.7-10.4,94,10.1,134.7"/>
				<path id="XMLID_70_" class="st4" d="M282,163.5c0,1.7,1.3,3,3,3s3-1.3,3-3s-1.3-3-3-3S282,161.8,282,163.5z"/>
			</g>
		</g>
	</g>
</g>
</svg>
