<?xml version="1.0" encoding="utf-8"?>
<!-- Generator: Adobe Illustrator 19.0.0, SVG Export Plug-In . SVG Version: 6.00 Build 0)  -->
<svg version="1.1" xmlns="http://www.w3.org/2000/svg" xmlns:xlink="http://www.w3.org/1999/xlink" x="0px" y="0px"
	 viewBox="0 0 600 600" style="enable-background:new 0 0 600 600;" xml:space="preserve">
<style type="text/css">
	.st0{fill:none;stroke:#000000;stroke-width:15;stroke-miterlimit:10;}
	.st1{fill:#FFFFFF;}
	.st2{fill:none;stroke:#FFFFFF;stroke-width:24;stroke-miterlimit:10;}
	.st3{fill:none;stroke:#000000;stroke-width:12;stroke-miterlimit:10;}
</style>
<g id="Layer_1">
</g>
<g id="Layer_2">
	<path id="XMLID_903_" class="st0" d="M107.5,283.5"/>
	<g id="XMLID_904_">
		<path id="XMLID_39_" class="st1" d="M250,224c0-27.6,22.4-50,50-50s50,22.4,50,50s-22.4,50-50,50S250,251.6,250,224z M400,500
			h-15.3c-25.1-47.4-64.9-144-69.3-205.9h-30.7c-4.5,61.9-44.2,158.4-69.3,205.9H200c-9.3,0-17,7.6-17,17c0,9.3,7.7,17,17,17h200
			c9.3,0,17-7.7,17-17C417,507.6,409.3,500,400,500z M394,500H202 M260,294.1h80c5.5,0,10-4.5,10-10l0,0c0-5.5-4.5-10-10-10h-80
			c-5.5,0-10,4.5-10,10l0,0C250,289.6,254.5,294.1,260,294.1z"/>
		<path id="XMLID_34_" class="st2" d="M250,224c0-27.6,22.4-50,50-50s50,22.4,50,50s-22.4,50-50,50S250,251.6,250,224z M400,500
			h-15.3c-25.1-47.4-64.9-144-69.3-205.9h-30.7c-4.5,61.9-44.2,158.4-69.3,205.9H200c-9.3,0-17,7.6-17,17c0,9.3,7.7,17,17,17h200
			c9.3,0,17-7.7,17-17C417,507.6,409.3,500,400,500z M394,500H202 M260,294.1h80c5.5,0,10-4.5,10-10l0,0c0-5.5-4.5-10-10-10h-80
			c-5.5,0-10,4.5-10,10l0,0C250,289.6,254.5,294.1,260,294.1z"/>
		<path id="XMLID_29_" class="st3" d="M250,224c0-27.6,22.4-50,50-50s50,22.4,50,50s-22.4,50-50,50S250,251.6,250,224z M400,500
			h-15.3c-25.1-47.4-64.9-144-69.3-205.9h-30.7c-4.5,61.9-44.2,158.4-69.3,205.9H200c-9.3,0-17,7.6-17,17c0,9.3,7.7,17,17,17h200
			c9.3,0,17-7.7,17-17C417,507.6,409.3,500,400,500z M394,500H202 M260,294.1h80c5.5,0,10-4.5,10-10l0,0c0-5.5-4.5-10-10-10h-80
			c-5.5,0-10,4.5-10,10l0,0C250,289.6,254.5,294.1,260,294.1z"/>
	</g>
</g>
</svg>
