<?xml version="1.0" encoding="utf-8"?>
<!-- Generator: Adobe Illustrator 19.0.0, SVG Export Plug-In . SVG Version: 6.00 Build 0)  -->
<svg version="1.1" xmlns="http://www.w3.org/2000/svg" xmlns:xlink="http://www.w3.org/1999/xlink" x="0px" y="0px"
	 viewBox="0 0 600 600" style="enable-background:new 0 0 600 600;" xml:space="preserve">
<style type="text/css">
	.st0{fill:#FFFFFF;}
	.st1{fill:none;stroke:#FFFFFF;stroke-width:12;stroke-linecap:round;stroke-linejoin:round;}
	.st2{fill:none;stroke:#FFFFFF;stroke-width:24;}
	.st3{fill:none;stroke:#000000;stroke-width:12;}
</style>
<g id="Layer_1">
</g>
<g id="Layer_2">
	<g id="XMLID_883_">
		<g id="XMLID_227_">
			<g id="XMLID_247_">
				<path id="XMLID_251_" class="st0" d="M206,497c39.4-134,43-192.5,42.9-284H350c-0.1,91.5,3.5,150,42.9,284v3
					c-62.3,0-124.6,0-186.9,0V497z"/>
				<polygon id="XMLID_250_" class="st0" points="196.5,185 402.5,185 402.5,193 402.5,194 384.5,213 350,213 248.9,213 214.5,213 
					196.5,194 196.5,193 				"/>
				<path id="XMLID_249_" class="st0" d="M206,500c62.3,0,124.6,0,186.9,0c10.7,0,21.4,0,32.1,0c9.4,0,17,7.6,17,17
					c0,9.3-7.6,17-17,17H175c-9.4,0-17-7.7-17-17c0-9,9.8-15.9,17-17c1.6-0.2,1.8,0,19.5,0c0,0,0.5,0,1.9,0
					C199.6,500,202.8,500,206,500z"/>
				<polygon id="XMLID_248_" class="st0" points="402.5,185 196.5,185 196.5,121 239.5,121 239.5,147 268.5,147 268.5,122 
					268.5,121 330.5,121 330.5,122 330.5,147 330.8,147 359.3,147 359.5,147 359.5,121 402.5,121 				"/>
			</g>
			<g id="XMLID_228_">
				<path id="XMLID_246_" class="st1" d="M392.9,500c10.7,0,21.4,0,32.1,0c9.4,0,17,7.6,17,17c0,9.3-7.6,17-17,17H175
					c-9.4,0-17-7.7-17-17c0-9,9.8-15.9,17-17c1.6-0.2,1.8,0,19.5,0c0,0,0.5,0,1.9,0c3.2,0,6.4,0,9.7,0
					C268.3,500,330.6,500,392.9,500z"/>
				<polyline id="XMLID_245_" class="st1" points="384.5,213 350,213 248.9,213 214.5,213 				"/>
				<path id="XMLID_244_" class="st1" d="M206,497c39.4-134,43-192.5,42.9-284"/>
				<line id="XMLID_243_" class="st1" x1="402.5" y1="185" x2="196.5" y2="185"/>
				<polyline id="XMLID_242_" class="st1" points="402.5,193 402.5,185 402.5,121 				"/>
				<polyline id="XMLID_241_" class="st1" points="196.5,193 196.5,185 196.5,121 				"/>
				<line id="XMLID_240_" class="st1" x1="402.5" y1="194" x2="384.5" y2="213"/>
				<path id="XMLID_239_" class="st1" d="M350,213c-0.1,91.5,3.5,150,42.9,284"/>
				<polyline id="XMLID_238_" class="st1" points="402.5,121 359.5,121 357.5,121 				"/>
				<polyline id="XMLID_237_" class="st1" points="241.5,121 239.5,121 196.5,121 				"/>
				<line id="XMLID_236_" class="st1" x1="196.5" y1="194" x2="214.5" y2="213"/>
				<polyline id="XMLID_235_" class="st1" points="359.5,121 359.5,147 359.5,152 				"/>
				<polyline id="XMLID_234_" class="st1" points="239.5,121 239.5,147 239.5,152 				"/>
				<line id="XMLID_233_" class="st1" x1="359.3" y1="147" x2="330.8" y2="147"/>
				<line id="XMLID_232_" class="st1" x1="268.5" y1="147" x2="239.5" y2="147"/>
				<polyline id="XMLID_231_" class="st1" points="330.5,152 330.5,147 330.5,122 				"/>
				<polyline id="XMLID_230_" class="st1" points="332.5,121 330.5,121 268.5,121 266.5,121 				"/>
				<polyline id="XMLID_229_" class="st1" points="268.5,122 268.5,147 268.5,152 				"/>
			</g>
		</g>
		<g id="XMLID_177_">
			<g id="XMLID_197_">
				<path id="XMLID_201_" class="st2" d="M206,497c39.4-134,43-192.5,42.9-284H350c-0.1,91.5,3.5,150,42.9,284v3
					c-62.3,0-124.6,0-186.9,0V497z"/>
				<polygon id="XMLID_200_" class="st2" points="196.5,185 402.5,185 402.5,193 402.5,194 384.5,213 350,213 248.9,213 214.5,213 
					196.5,194 196.5,193 				"/>
				<path id="XMLID_199_" class="st2" d="M206,500c62.3,0,124.6,0,186.9,0c10.7,0,21.4,0,32.1,0c9.4,0,17,7.6,17,17
					c0,9.3-7.6,17-17,17H175c-9.4,0-17-7.7-17-17c0-9,9.8-15.9,17-17c1.6-0.2,1.8,0,19.5,0c0,0,0.5,0,1.9,0
					C199.6,500,202.8,500,206,500z"/>
				<polygon id="XMLID_198_" class="st2" points="402.5,185 196.5,185 196.5,121 239.5,121 239.5,147 268.5,147 268.5,122 
					268.5,121 330.5,121 330.5,122 330.5,147 330.8,147 359.3,147 359.5,147 359.5,121 402.5,121 				"/>
			</g>
			<g id="XMLID_178_">
				<path id="XMLID_196_" class="st2" d="M392.9,500c10.7,0,21.4,0,32.1,0c9.4,0,17,7.6,17,17c0,9.3-7.6,17-17,17H175
					c-9.4,0-17-7.7-17-17c0-9,9.8-15.9,17-17c1.6-0.2,1.8,0,19.5,0c0,0,0.5,0,1.9,0c3.2,0,6.4,0,9.7,0
					C268.3,500,330.6,500,392.9,500z"/>
				<polyline id="XMLID_195_" class="st2" points="384.5,213 350,213 248.9,213 214.5,213 				"/>
				<path id="XMLID_194_" class="st2" d="M206,497c39.4-134,43-192.5,42.9-284"/>
				<line id="XMLID_193_" class="st2" x1="402.5" y1="185" x2="196.5" y2="185"/>
				<polyline id="XMLID_192_" class="st2" points="402.5,193 402.5,185 402.5,121 				"/>
				<polyline id="XMLID_191_" class="st2" points="196.5,193 196.5,185 196.5,121 				"/>
				<line id="XMLID_190_" class="st2" x1="402.5" y1="194" x2="384.5" y2="213"/>
				<path id="XMLID_189_" class="st2" d="M350,213c-0.1,91.5,3.5,150,42.9,284"/>
				<polyline id="XMLID_188_" class="st2" points="402.5,121 359.5,121 357.5,121 				"/>
				<polyline id="XMLID_187_" class="st2" points="241.5,121 239.5,121 196.5,121 				"/>
				<line id="XMLID_186_" class="st2" x1="196.5" y1="194" x2="214.5" y2="213"/>
				<polyline id="XMLID_185_" class="st2" points="359.5,121 359.5,147 359.5,152 				"/>
				<polyline id="XMLID_184_" class="st2" points="239.5,121 239.5,147 239.5,152 				"/>
				<line id="XMLID_183_" class="st2" x1="359.3" y1="147" x2="330.8" y2="147"/>
				<line id="XMLID_182_" class="st2" x1="268.5" y1="147" x2="239.5" y2="147"/>
				<polyline id="XMLID_181_" class="st2" points="330.5,152 330.5,147 330.5,122 				"/>
				<polyline id="XMLID_180_" class="st2" points="332.5,121 330.5,121 268.5,121 266.5,121 				"/>
				<polyline id="XMLID_179_" class="st2" points="268.5,122 268.5,147 268.5,152 				"/>
			</g>
		</g>
		<g id="XMLID_152_">
			<g id="XMLID_172_">
				<path id="XMLID_176_" class="st3" d="M206,497c39.4-134,43-192.5,42.9-284H350c-0.1,91.5,3.5,150,42.9,284v3
					c-62.3,0-124.6,0-186.9,0V497z"/>
				<polygon id="XMLID_175_" class="st3" points="196.5,185 402.5,185 402.5,193 402.5,194 384.5,213 350,213 248.9,213 214.5,213 
					196.5,194 196.5,193 				"/>
				<path id="XMLID_174_" class="st3" d="M206,500c62.3,0,124.6,0,186.9,0c10.7,0,21.4,0,32.1,0c9.4,0,17,7.6,17,17
					c0,9.3-7.6,17-17,17H175c-9.4,0-17-7.7-17-17c0-9,9.8-15.9,17-17c1.6-0.2,1.8,0,19.5,0c0,0,0.5,0,1.9,0
					C199.6,500,202.8,500,206,500z"/>
				<polygon id="XMLID_173_" class="st3" points="402.5,185 196.5,185 196.5,121 239.5,121 239.5,147 268.5,147 268.5,122 
					268.5,121 330.5,121 330.5,122 330.5,147 330.8,147 359.3,147 359.5,147 359.5,121 402.5,121 				"/>
			</g>
			<g id="XMLID_153_">
				<path id="XMLID_171_" class="st3" d="M392.9,500c10.7,0,21.4,0,32.1,0c9.4,0,17,7.6,17,17c0,9.3-7.6,17-17,17H175
					c-9.4,0-17-7.7-17-17c0-9,9.8-15.9,17-17c1.6-0.2,1.8,0,19.5,0c0,0,0.5,0,1.9,0c3.2,0,6.4,0,9.7,0
					C268.3,500,330.6,500,392.9,500z"/>
				<polyline id="XMLID_170_" class="st3" points="384.5,213 350,213 248.9,213 214.5,213 				"/>
				<path id="XMLID_169_" class="st3" d="M206,497c39.4-134,43-192.5,42.9-284"/>
				<line id="XMLID_168_" class="st3" x1="402.5" y1="185" x2="196.5" y2="185"/>
				<polyline id="XMLID_167_" class="st3" points="402.5,193 402.5,185 402.5,121 				"/>
				<polyline id="XMLID_166_" class="st3" points="196.5,193 196.5,185 196.5,121 				"/>
				<line id="XMLID_165_" class="st3" x1="402.5" y1="194" x2="384.5" y2="213"/>
				<path id="XMLID_164_" class="st3" d="M350,213c-0.1,91.5,3.5,150,42.9,284"/>
				<polyline id="XMLID_163_" class="st3" points="402.5,121 359.5,121 357.5,121 				"/>
				<polyline id="XMLID_162_" class="st3" points="241.5,121 239.5,121 196.5,121 				"/>
				<line id="XMLID_161_" class="st3" x1="196.5" y1="194" x2="214.5" y2="213"/>
				<polyline id="XMLID_160_" class="st3" points="359.5,121 359.5,147 359.5,152 				"/>
				<polyline id="XMLID_159_" class="st3" points="239.5,121 239.5,147 239.5,152 				"/>
				<line id="XMLID_158_" class="st3" x1="359.3" y1="147" x2="330.8" y2="147"/>
				<line id="XMLID_157_" class="st3" x1="268.5" y1="147" x2="239.5" y2="147"/>
				<polyline id="XMLID_156_" class="st3" points="330.5,152 330.5,147 330.5,122 				"/>
				<polyline id="XMLID_155_" class="st3" points="332.5,121 330.5,121 268.5,121 266.5,121 				"/>
				<polyline id="XMLID_154_" class="st3" points="268.5,122 268.5,147 268.5,152 				"/>
			</g>
		</g>
	</g>
</g>
</svg>
